M48
; DRILL file {KiCad (6.0.9)} date Mon Nov 21 22:50:26 2022
; FORMAT={-:-/ absolute / inch / decimal}
; #@! TF.CreationDate,2022-11-21T22:50:26+02:00
; #@! TF.GenerationSoftware,Kicad,Pcbnew,(6.0.9)
; #@! TF.FileFunction,Plated,1,2,PTH
FMAT,2
INCH
; #@! TA.AperFunction,Plated,PTH,ViaDrill
T1C0.0079
; #@! TA.AperFunction,Plated,PTH,ViaDrill
T2C0.0157
; #@! TA.AperFunction,Plated,PTH,ComponentDrill
T3C0.0315
; #@! TA.AperFunction,Plated,PTH,ComponentDrill
T4C0.0394
; #@! TA.AperFunction,Plated,PTH,ComponentDrill
T5C0.0433
; #@! TA.AperFunction,Plated,PTH,ComponentDrill
T6C0.0472
; #@! TA.AperFunction,Plated,PTH,ComponentDrill
T7C0.0551
; #@! TA.AperFunction,Plated,PTH,ComponentDrill
T8C0.0984
%
G90
G05
T1
X4.1472Y-2.2854
X4.1472Y-2.3287
X4.1693Y-2.263
X4.1693Y-2.3071
X4.1693Y-2.3504
X4.1909Y-2.2854
X4.1909Y-2.3287
X4.2126Y-2.2634
X4.2126Y-2.3075
X4.2126Y-2.3504
X4.2339Y-2.3287
X4.2343Y-2.2854
T2
X3.6614Y-3.6614
X3.9894Y-3.3139
X4.0591Y-3.4162
X4.0591Y-3.4556
X4.1752Y-3.3139
X4.4291Y-1.7126
T3
X3.4252Y-1.09
X3.4252Y-1.19
X3.4252Y-1.29
X3.4252Y-1.39
X4.252Y-1.2382
X4.252Y-1.3382
X4.252Y-1.4382
T4
X0.9055Y-1.7654
X0.9055Y-1.8654
X0.9055Y-1.9654
X0.9055Y-2.0654
X0.9055Y-2.1654
X0.9055Y-2.2654
X0.9055Y-2.3654
X0.9055Y-2.4654
X0.9843Y-1.2795
X0.9843Y-1.3795
X0.9843Y-1.4795
X0.9843Y-2.7543
X0.9843Y-2.8543
X0.9843Y-2.9543
X0.9843Y-3.148
X0.9843Y-3.248
X0.9843Y-3.348
X1.063Y-1.7654
X1.063Y-1.8654
X1.063Y-1.9654
X1.063Y-2.0654
X1.063Y-2.1654
X1.063Y-2.2654
X1.063Y-2.3654
X1.063Y-2.4654
X3.8583Y-1.1199
X3.8583Y-1.2199
X3.8583Y-1.3199
X5.065Y-3.0531
X5.065Y-3.1531
X5.065Y-3.2531
X5.065Y-3.3531
X5.065Y-3.4531
X5.065Y-3.5531
T5
X1.3878Y-3.1201
X1.3878Y-3.376
X1.565Y-3.1201
X1.565Y-3.376
X1.8524Y-2.1825
X1.8524Y-2.2825
X1.8524Y-2.3825
X1.8799Y-3.1201
X1.8799Y-3.376
X2.0571Y-3.1201
X2.0571Y-3.376
T6
X2.5157Y-1.6592
X2.6157Y-1.6592
X2.7157Y-1.6592
X2.8157Y-1.6592
X2.9157Y-1.6592
X3.0157Y-1.6592
X3.1157Y-1.6592
X3.2157Y-1.6592
X3.3157Y-1.6592
X3.4157Y-1.6592
X3.5157Y-1.6592
X3.6157Y-1.6592
X3.7157Y-1.6592
X3.8157Y-1.6592
X3.9157Y-1.6592
X4.0157Y-1.6592
T7
X2.0636Y-3.687
X2.2605Y-3.687
X2.4573Y-3.687
X2.6542Y-3.687
X2.851Y-3.687
X3.0479Y-3.687
X3.2447Y-3.687
X3.4416Y-3.687
T8
X1.2795Y-1.6592
X1.2795Y-2.8797
X4.2322Y-1.6592
X4.2322Y-2.8797
T0
M30
