%TF.GenerationSoftware,KiCad,Pcbnew,(6.0.9)*%
%TF.CreationDate,2022-11-21T22:50:26+02:00*%
%TF.ProjectId,Elekit2.0,456c656b-6974-4322-9e30-2e6b69636164,rev?*%
%TF.SameCoordinates,Original*%
%TF.FileFunction,Copper,L1,Top*%
%TF.FilePolarity,Positive*%
%FSLAX46Y46*%
G04 Gerber Fmt 4.6, Leading zero omitted, Abs format (unit mm)*
G04 Created by KiCad (PCBNEW (6.0.9)) date 2022-11-21 22:50:26*
%MOMM*%
%LPD*%
G01*
G04 APERTURE LIST*
G04 Aperture macros list*
%AMRoundRect*
0 Rectangle with rounded corners*
0 $1 Rounding radius*
0 $2 $3 $4 $5 $6 $7 $8 $9 X,Y pos of 4 corners*
0 Add a 4 corners polygon primitive as box body*
4,1,4,$2,$3,$4,$5,$6,$7,$8,$9,$2,$3,0*
0 Add four circle primitives for the rounded corners*
1,1,$1+$1,$2,$3*
1,1,$1+$1,$4,$5*
1,1,$1+$1,$6,$7*
1,1,$1+$1,$8,$9*
0 Add four rect primitives between the rounded corners*
20,1,$1+$1,$2,$3,$4,$5,0*
20,1,$1+$1,$4,$5,$6,$7,0*
20,1,$1+$1,$6,$7,$8,$9,0*
20,1,$1+$1,$8,$9,$2,$3,0*%
%AMFreePoly0*
4,1,22,0.500000,-0.750000,0.000000,-0.750000,0.000000,-0.745033,-0.079941,-0.743568,-0.215256,-0.701293,-0.333266,-0.622738,-0.424486,-0.514219,-0.481581,-0.384460,-0.499164,-0.250000,-0.500000,-0.250000,-0.500000,0.250000,-0.499164,0.250000,-0.499963,0.256109,-0.478152,0.396186,-0.417904,0.524511,-0.324060,0.630769,-0.204165,0.706417,-0.067858,0.745374,0.000000,0.744959,0.000000,0.750000,
0.500000,0.750000,0.500000,-0.750000,0.500000,-0.750000,$1*%
%AMFreePoly1*
4,1,20,0.000000,0.744959,0.073905,0.744508,0.209726,0.703889,0.328688,0.626782,0.421226,0.519385,0.479903,0.390333,0.500000,0.250000,0.500000,-0.250000,0.499851,-0.262216,0.476331,-0.402017,0.414519,-0.529596,0.319384,-0.634700,0.198574,-0.708877,0.061801,-0.746166,0.000000,-0.745033,0.000000,-0.750000,-0.500000,-0.750000,-0.500000,0.750000,0.000000,0.750000,0.000000,0.744959,
0.000000,0.744959,$1*%
G04 Aperture macros list end*
%TA.AperFunction,SMDPad,CuDef*%
%ADD10FreePoly0,0.000000*%
%TD*%
%TA.AperFunction,SMDPad,CuDef*%
%ADD11FreePoly1,0.000000*%
%TD*%
%TA.AperFunction,ComponentPad*%
%ADD12R,1.700000X1.700000*%
%TD*%
%TA.AperFunction,ComponentPad*%
%ADD13O,1.700000X1.700000*%
%TD*%
%TA.AperFunction,SMDPad,CuDef*%
%ADD14R,2.500000X1.800000*%
%TD*%
%TA.AperFunction,SMDPad,CuDef*%
%ADD15R,1.000000X2.000000*%
%TD*%
%TA.AperFunction,SMDPad,CuDef*%
%ADD16R,0.700000X0.700000*%
%TD*%
%TA.AperFunction,ComponentPad*%
%ADD17C,2.000000*%
%TD*%
%TA.AperFunction,SMDPad,CuDef*%
%ADD18RoundRect,0.250000X-0.250000X-0.475000X0.250000X-0.475000X0.250000X0.475000X-0.250000X0.475000X0*%
%TD*%
%TA.AperFunction,SMDPad,CuDef*%
%ADD19RoundRect,0.250000X0.312500X0.625000X-0.312500X0.625000X-0.312500X-0.625000X0.312500X-0.625000X0*%
%TD*%
%TA.AperFunction,ComponentPad*%
%ADD20O,1.800000X2.600000*%
%TD*%
%TA.AperFunction,ComponentPad*%
%ADD21R,1.800000X2.600000*%
%TD*%
%TA.AperFunction,ComponentPad*%
%ADD22C,3.000000*%
%TD*%
%TA.AperFunction,SMDPad,CuDef*%
%ADD23RoundRect,0.250000X0.250000X0.475000X-0.250000X0.475000X-0.250000X-0.475000X0.250000X-0.475000X0*%
%TD*%
%TA.AperFunction,ComponentPad*%
%ADD24R,1.500000X1.500000*%
%TD*%
%TA.AperFunction,ComponentPad*%
%ADD25C,1.500000*%
%TD*%
%TA.AperFunction,SMDPad,CuDef*%
%ADD26R,1.500000X3.000000*%
%TD*%
%TA.AperFunction,SMDPad,CuDef*%
%ADD27R,0.500000X2.200000*%
%TD*%
%TA.AperFunction,SMDPad,CuDef*%
%ADD28R,2.000000X2.200000*%
%TD*%
%TA.AperFunction,SMDPad,CuDef*%
%ADD29R,1.000000X0.600000*%
%TD*%
%TA.AperFunction,SMDPad,CuDef*%
%ADD30RoundRect,0.150000X-0.150000X0.587500X-0.150000X-0.587500X0.150000X-0.587500X0.150000X0.587500X0*%
%TD*%
%TA.AperFunction,SMDPad,CuDef*%
%ADD31C,10.000025*%
%TD*%
%TA.AperFunction,SMDPad,CuDef*%
%ADD32R,2.400000X6.100000*%
%TD*%
%TA.AperFunction,SMDPad,CuDef*%
%ADD33RoundRect,0.250000X-0.450000X0.262500X-0.450000X-0.262500X0.450000X-0.262500X0.450000X0.262500X0*%
%TD*%
%TA.AperFunction,SMDPad,CuDef*%
%ADD34RoundRect,0.200000X-0.275000X0.200000X-0.275000X-0.200000X0.275000X-0.200000X0.275000X0.200000X0*%
%TD*%
%TA.AperFunction,SMDPad,CuDef*%
%ADD35RoundRect,0.250000X0.450000X-0.262500X0.450000X0.262500X-0.450000X0.262500X-0.450000X-0.262500X0*%
%TD*%
%TA.AperFunction,SMDPad,CuDef*%
%ADD36RoundRect,0.250000X-0.262500X-0.450000X0.262500X-0.450000X0.262500X0.450000X-0.262500X0.450000X0*%
%TD*%
%TA.AperFunction,SMDPad,CuDef*%
%ADD37RoundRect,0.140000X-0.140000X-0.170000X0.140000X-0.170000X0.140000X0.170000X-0.140000X0.170000X0*%
%TD*%
%TA.AperFunction,SMDPad,CuDef*%
%ADD38RoundRect,0.200000X-0.200000X-0.275000X0.200000X-0.275000X0.200000X0.275000X-0.200000X0.275000X0*%
%TD*%
%TA.AperFunction,SMDPad,CuDef*%
%ADD39RoundRect,0.150000X-0.587500X-0.150000X0.587500X-0.150000X0.587500X0.150000X-0.587500X0.150000X0*%
%TD*%
%TA.AperFunction,SMDPad,CuDef*%
%ADD40R,1.200000X0.900000*%
%TD*%
%TA.AperFunction,ComponentPad*%
%ADD41C,2.200000*%
%TD*%
%TA.AperFunction,SMDPad,CuDef*%
%ADD42RoundRect,0.250000X-0.625000X0.312500X-0.625000X-0.312500X0.625000X-0.312500X0.625000X0.312500X0*%
%TD*%
%TA.AperFunction,SMDPad,CuDef*%
%ADD43R,1.700000X1.000000*%
%TD*%
%TA.AperFunction,SMDPad,CuDef*%
%ADD44R,1.800000X2.500000*%
%TD*%
%TA.AperFunction,SMDPad,CuDef*%
%ADD45RoundRect,0.200000X0.275000X-0.200000X0.275000X0.200000X-0.275000X0.200000X-0.275000X-0.200000X0*%
%TD*%
%TA.AperFunction,SMDPad,CuDef*%
%ADD46RoundRect,0.250000X-0.475000X0.250000X-0.475000X-0.250000X0.475000X-0.250000X0.475000X0.250000X0*%
%TD*%
%TA.AperFunction,SMDPad,CuDef*%
%ADD47RoundRect,0.250000X0.475000X-0.250000X0.475000X0.250000X-0.475000X0.250000X-0.475000X-0.250000X0*%
%TD*%
%TA.AperFunction,SMDPad,CuDef*%
%ADD48RoundRect,0.250000X0.262500X0.450000X-0.262500X0.450000X-0.262500X-0.450000X0.262500X-0.450000X0*%
%TD*%
%TA.AperFunction,SMDPad,CuDef*%
%ADD49RoundRect,0.200000X0.200000X0.275000X-0.200000X0.275000X-0.200000X-0.275000X0.200000X-0.275000X0*%
%TD*%
%TA.AperFunction,SMDPad,CuDef*%
%ADD50RoundRect,0.243750X-0.456250X0.243750X-0.456250X-0.243750X0.456250X-0.243750X0.456250X0.243750X0*%
%TD*%
%TA.AperFunction,SMDPad,CuDef*%
%ADD51RoundRect,0.140000X0.170000X-0.140000X0.170000X0.140000X-0.170000X0.140000X-0.170000X-0.140000X0*%
%TD*%
%TA.AperFunction,SMDPad,CuDef*%
%ADD52R,0.900000X1.200000*%
%TD*%
%TA.AperFunction,SMDPad,CuDef*%
%ADD53RoundRect,0.150000X0.512500X0.150000X-0.512500X0.150000X-0.512500X-0.150000X0.512500X-0.150000X0*%
%TD*%
%TA.AperFunction,ComponentPad*%
%ADD54O,2.000000X1.905000*%
%TD*%
%TA.AperFunction,ComponentPad*%
%ADD55R,2.000000X1.905000*%
%TD*%
%TA.AperFunction,SMDPad,CuDef*%
%ADD56O,0.602007X1.970993*%
%TD*%
%TA.AperFunction,SMDPad,CuDef*%
%ADD57RoundRect,0.140000X-0.170000X0.140000X-0.170000X-0.140000X0.170000X-0.140000X0.170000X0.140000X0*%
%TD*%
%TA.AperFunction,ComponentPad*%
%ADD58C,1.440000*%
%TD*%
%TA.AperFunction,ViaPad*%
%ADD59C,0.800000*%
%TD*%
%TA.AperFunction,ViaPad*%
%ADD60C,0.400000*%
%TD*%
%TA.AperFunction,Conductor*%
%ADD61C,0.300000*%
%TD*%
%TA.AperFunction,Conductor*%
%ADD62C,0.640000*%
%TD*%
%TA.AperFunction,Conductor*%
%ADD63C,1.000000*%
%TD*%
%TA.AperFunction,Conductor*%
%ADD64C,1.500000*%
%TD*%
%TA.AperFunction,Conductor*%
%ADD65C,0.400000*%
%TD*%
%TA.AperFunction,Conductor*%
%ADD66C,0.500000*%
%TD*%
%TA.AperFunction,Conductor*%
%ADD67C,0.550000*%
%TD*%
G04 APERTURE END LIST*
D10*
%TO.P,JP5,1,A*%
%TO.N,Net-(J6-Pad3)*%
X140550000Y-77000000D03*
D11*
%TO.P,JP5,2,B*%
%TO.N,Net-(D8-Pad2)*%
X141850000Y-77000000D03*
%TD*%
D12*
%TO.P,J6,1,Pin_1*%
%TO.N,GND*%
X128650000Y-77550000D03*
D13*
%TO.P,J6,2,Pin_2*%
%TO.N,unconnected-(J6-Pad2)*%
X128650000Y-80090000D03*
%TO.P,J6,3,Pin_3*%
%TO.N,Net-(J6-Pad3)*%
X128650000Y-82630000D03*
%TO.P,J6,4,Pin_4*%
%TO.N,/RX*%
X128650000Y-85170000D03*
%TO.P,J6,5,Pin_5*%
%TO.N,/TX*%
X128650000Y-87710000D03*
%TO.P,J6,6,Pin_6*%
%TO.N,unconnected-(J6-Pad6)*%
X128650000Y-90250000D03*
%TD*%
D14*
%TO.P,D8,1,K*%
%TO.N,/VBUS*%
X133000000Y-77500000D03*
%TO.P,D8,2,A*%
%TO.N,Net-(D8-Pad2)*%
X137000000Y-77500000D03*
%TD*%
D12*
%TO.P,J10,1,Pin_1*%
%TO.N,GND*%
X25000000Y-32500000D03*
D13*
%TO.P,J10,2,Pin_2*%
%TO.N,Net-(J10-Pad2)*%
X25000000Y-35040000D03*
%TO.P,J10,3,Pin_3*%
%TO.N,/VBUS*%
X25000000Y-37580000D03*
%TD*%
D15*
%TO.P,U9,1,3V3*%
%TO.N,+3.3V*%
X112649898Y-48889890D03*
%TO.P,U9,2,EN*%
%TO.N,/CHIP_PU*%
X111150025Y-48889890D03*
%TO.P,U9,3,IO4*%
%TO.N,/GPIO4*%
X109649898Y-48889890D03*
%TO.P,U9,4,IO5*%
%TO.N,/GPIO5*%
X108150025Y-48889890D03*
%TO.P,U9,5,IO6*%
%TO.N,/GPIO6*%
X106649898Y-48889890D03*
%TO.P,U9,6,IO7*%
%TO.N,/GPIO7*%
X105150025Y-48889890D03*
%TO.P,U9,7,IO8*%
%TO.N,/GPIO8*%
X103649898Y-48889890D03*
%TO.P,U9,8,IO9*%
%TO.N,/GPIO9*%
X102150025Y-48889890D03*
%TO.P,U9,9,GND*%
%TO.N,GND*%
X100649898Y-48889890D03*
%TO.P,U9,10,IO10*%
%TO.N,/GPIO10*%
X100649898Y-66390018D03*
%TO.P,U9,11,RXD*%
%TO.N,/RX*%
X102150025Y-66390018D03*
%TO.P,U9,12,TXD*%
%TO.N,/TX*%
X103649898Y-66390018D03*
%TO.P,U9,13,IO18*%
%TO.N,/D-*%
X105150025Y-66390018D03*
%TO.P,U9,14,IO19*%
%TO.N,/D+*%
X106649898Y-66390018D03*
%TO.P,U9,15,IO3*%
%TO.N,/GPIO3*%
X108150025Y-66390018D03*
%TO.P,U9,16,IO2*%
%TO.N,/GPIO2*%
X109649898Y-66390018D03*
%TO.P,U9,17,IO1*%
%TO.N,/GPIO1*%
X111150025Y-66390018D03*
%TO.P,U9,18,IO0*%
%TO.N,/GPIO0*%
X112649898Y-66390018D03*
D16*
%TO.P,U9,19,EP*%
%TO.N,GND*%
X106450000Y-58599822D03*
X107550076Y-59699898D03*
X106450000Y-57500000D03*
X106450000Y-59699898D03*
X105349924Y-58599822D03*
X107550076Y-57500000D03*
X107550076Y-58599822D03*
X105349924Y-59699898D03*
X105349924Y-57500000D03*
%TD*%
D17*
%TO.P,SW2,1,1*%
%TO.N,GND*%
X35250000Y-85750000D03*
X35250000Y-79250000D03*
%TO.P,SW2,2,2*%
%TO.N,Net-(C14-Pad2)*%
X39750000Y-85750000D03*
X39750000Y-79250000D03*
%TD*%
D18*
%TO.P,C14,1*%
%TO.N,GND*%
X82050000Y-60000000D03*
%TO.P,C14,2*%
%TO.N,Net-(C14-Pad2)*%
X83950000Y-60000000D03*
%TD*%
D19*
%TO.P,R1,1*%
%TO.N,Net-(C3-Pad1)*%
X95462500Y-97500000D03*
%TO.P,R1,2*%
%TO.N,GND*%
X92537500Y-97500000D03*
%TD*%
D20*
%TO.P,DS1,16,LED(-)*%
%TO.N,GND*%
X63900000Y-42142500D03*
%TO.P,DS1,15,LED(+)*%
%TO.N,Net-(DS1-Pad15)*%
X66440000Y-42142500D03*
%TO.P,DS1,14,D7*%
%TO.N,Net-(DS1-Pad14)*%
X68980000Y-42142500D03*
%TO.P,DS1,13,D6*%
%TO.N,Net-(DS1-Pad13)*%
X71520000Y-42142500D03*
%TO.P,DS1,12,D5*%
%TO.N,Net-(DS1-Pad12)*%
X74060000Y-42142500D03*
%TO.P,DS1,11,D4*%
%TO.N,Net-(DS1-Pad11)*%
X76600000Y-42142500D03*
%TO.P,DS1,10,D3*%
%TO.N,unconnected-(DS1-Pad10)*%
X79140000Y-42142500D03*
%TO.P,DS1,9,D2*%
%TO.N,unconnected-(DS1-Pad9)*%
X81680000Y-42142500D03*
%TO.P,DS1,8,D1*%
%TO.N,unconnected-(DS1-Pad8)*%
X84220000Y-42142500D03*
%TO.P,DS1,7,D0*%
%TO.N,unconnected-(DS1-Pad7)*%
X86760000Y-42142500D03*
%TO.P,DS1,6,E*%
%TO.N,Net-(DS1-Pad6)*%
X89300000Y-42142500D03*
%TO.P,DS1,5,R/W*%
%TO.N,GND*%
X91840000Y-42142500D03*
%TO.P,DS1,4,RS*%
%TO.N,Net-(DS1-Pad4)*%
X94380000Y-42142500D03*
%TO.P,DS1,3,VO*%
%TO.N,Net-(DS1-Pad3)*%
X96920000Y-42142500D03*
%TO.P,DS1,2,VDD*%
%TO.N,/VBUS*%
X99460000Y-42142500D03*
D21*
%TO.P,DS1,1,VSS*%
%TO.N,GND*%
X102000000Y-42142500D03*
D22*
%TO.P,DS1,*%
%TO.N,*%
X32500000Y-42142500D03*
X107499100Y-73143200D03*
X107499100Y-42142500D03*
X32500520Y-73143200D03*
%TD*%
D23*
%TO.P,C3,1*%
%TO.N,Net-(C3-Pad1)*%
X94900000Y-95000000D03*
%TO.P,C3,2*%
%TO.N,GND*%
X93000000Y-95000000D03*
%TD*%
D24*
%TO.P,U11,1,VCC*%
%TO.N,+3.3V*%
X87000000Y-27685000D03*
D25*
%TO.P,U11,2,IO*%
%TO.N,/DHT_DATA*%
X87000000Y-30225000D03*
%TO.P,U11,3,NC*%
%TO.N,unconnected-(U11-Pad3)*%
X87000000Y-32765000D03*
%TO.P,U11,4,GND*%
%TO.N,GND*%
X87000000Y-35305000D03*
%TD*%
D26*
%TO.P,U12,1,AN*%
%TO.N,/DRAIN1_CONTROL*%
X74039752Y-72500000D03*
%TO.P,U12,2,CAT*%
%TO.N,Net-(R20-Pad1)*%
X71499746Y-72500000D03*
%TO.P,U12,3,EM*%
%TO.N,Net-(R19-Pad1)*%
X71499746Y-82500000D03*
%TO.P,U12,4,COL*%
%TO.N,/HVBUS*%
X74039752Y-82500000D03*
%TD*%
D27*
%TO.P,U1,1,VCC*%
%TO.N,/VUSB*%
X100899924Y-91599822D03*
%TO.P,U1,2,D-*%
%TO.N,/D-*%
X101700025Y-91599822D03*
%TO.P,U1,3,D+*%
%TO.N,/D+*%
X102499873Y-91599822D03*
%TO.P,U1,4,ID*%
%TO.N,unconnected-(U1-Pad4)*%
X103299975Y-91599822D03*
%TO.P,U1,5,GND*%
%TO.N,GND*%
X104099822Y-91599822D03*
D28*
%TO.P,U1,6,6*%
%TO.N,Net-(C3-Pad1)*%
X98050038Y-91999873D03*
%TO.P,U1,7,7*%
X106949962Y-91999873D03*
%TO.P,U1,9,9*%
X98050038Y-97500000D03*
%TO.P,U1,8,8*%
X106949962Y-97500000D03*
%TD*%
D29*
%TO.P,U7,5,VOUT*%
%TO.N,+3.3V*%
X75300102Y-56070038D03*
%TO.P,U7,4,NC*%
%TO.N,unconnected-(U7-Pad4)*%
X75300102Y-57969962D03*
%TO.P,U7,3,CE*%
%TO.N,/EN_LDO*%
X72699898Y-57969962D03*
%TO.P,U7,2,VSS*%
%TO.N,GND*%
X72699898Y-57020000D03*
%TO.P,U7,1,VIN*%
%TO.N,/VBUS*%
X72699898Y-56070038D03*
%TD*%
D30*
%TO.P,Q4,1,G*%
%TO.N,Net-(Q4-Pad1)*%
X74219876Y-85562500D03*
%TO.P,Q4,2,S*%
%TO.N,GNDPWR*%
X72319876Y-85562500D03*
%TO.P,Q4,3,D*%
%TO.N,/DRAIN1*%
X73269876Y-87437500D03*
%TD*%
D12*
%TO.P,J9,1,Pin_1*%
%TO.N,GND*%
X25000000Y-75040000D03*
D13*
%TO.P,J9,2,Pin_2*%
%TO.N,/VBUS*%
X25000000Y-72500000D03*
%TO.P,J9,3,Pin_3*%
%TO.N,/SERVO2*%
X25000000Y-69960000D03*
%TD*%
D31*
%TO.P,U2,2,2*%
%TO.N,Net-(U2-Pad2)*%
X70000000Y-29809500D03*
D32*
%TO.P,U2,1,1*%
%TO.N,+BATT*%
X81350013Y-29809500D03*
X58649987Y-29809500D03*
%TD*%
D12*
%TO.P,J7,1,Pin_1*%
%TO.N,/GPIO0*%
X23000000Y-44840000D03*
D13*
%TO.P,J7,2,Pin_2*%
%TO.N,/GPIO1*%
X23000000Y-47380000D03*
%TO.P,J7,3,Pin_3*%
%TO.N,/GPIO2*%
X23000000Y-49920000D03*
%TO.P,J7,4,Pin_4*%
%TO.N,/GPIO3*%
X23000000Y-52460000D03*
%TO.P,J7,5,Pin_5*%
%TO.N,/GPIO4*%
X23000000Y-55000000D03*
%TO.P,J7,6,Pin_6*%
%TO.N,/GPIO5*%
X23000000Y-57540000D03*
%TO.P,J7,7,Pin_7*%
%TO.N,/GPIO6*%
X23000000Y-60080000D03*
%TO.P,J7,8,Pin_8*%
%TO.N,/GPIO7*%
X23000000Y-62620000D03*
%TD*%
D18*
%TO.P,C10,1*%
%TO.N,/BTN*%
X61700000Y-57000000D03*
%TO.P,C10,2*%
%TO.N,GND*%
X63600000Y-57000000D03*
%TD*%
D33*
%TO.P,R18,1*%
%TO.N,+3.3V*%
X31000000Y-57087500D03*
%TO.P,R18,2*%
%TO.N,/DHT_DATA*%
X31000000Y-58912500D03*
%TD*%
D34*
%TO.P,R21,1*%
%TO.N,Net-(Q4-Pad1)*%
X68769876Y-85675000D03*
%TO.P,R21,2*%
%TO.N,GNDPWR*%
X68769876Y-87325000D03*
%TD*%
D35*
%TO.P,R2,1*%
%TO.N,/VBUS*%
X70060000Y-48270000D03*
%TO.P,R2,2*%
%TO.N,Net-(DS1-Pad15)*%
X70060000Y-46445000D03*
%TD*%
D33*
%TO.P,R16,1*%
%TO.N,+3.3V*%
X73839924Y-62087500D03*
%TO.P,R16,2*%
%TO.N,/DQ*%
X73839924Y-63912500D03*
%TD*%
D36*
%TO.P,R4,1*%
%TO.N,Net-(R4-Pad1)*%
X88087500Y-58000000D03*
%TO.P,R4,2*%
%TO.N,/BTN*%
X89912500Y-58000000D03*
%TD*%
D37*
%TO.P,C2,2*%
%TO.N,/D-*%
X103160000Y-84171869D03*
%TO.P,C2,1*%
%TO.N,GND*%
X102200000Y-84171869D03*
%TD*%
D12*
%TO.P,J11,1,Pin_1*%
%TO.N,GND*%
X98000000Y-33525000D03*
D13*
%TO.P,J11,2,Pin_2*%
%TO.N,/DQ*%
X98000000Y-30985000D03*
%TO.P,J11,3,Pin_3*%
%TO.N,+3.3V*%
X98000000Y-28445000D03*
%TD*%
D32*
%TO.P,U4,1,1*%
%TO.N,Net-(U2-Pad2)*%
X31149987Y-29809500D03*
X53850013Y-29809500D03*
D31*
%TO.P,U4,2,2*%
%TO.N,GND*%
X42500000Y-29809500D03*
%TD*%
D36*
%TO.P,R8,1*%
%TO.N,Net-(Q1-Pad1)*%
X56337500Y-57000000D03*
%TO.P,R8,2*%
%TO.N,/GPIO5*%
X58162500Y-57000000D03*
%TD*%
D34*
%TO.P,R19,1*%
%TO.N,Net-(R19-Pad1)*%
X68769876Y-81675000D03*
%TO.P,R19,2*%
%TO.N,Net-(Q4-Pad1)*%
X68769876Y-83325000D03*
%TD*%
D38*
%TO.P,R23,1*%
%TO.N,Net-(Q5-Pad1)*%
X80944876Y-85500000D03*
%TO.P,R23,2*%
%TO.N,Net-(R23-Pad2)*%
X82594876Y-85500000D03*
%TD*%
D39*
%TO.P,Q2,1,G*%
%TO.N,Net-(Q2-Pad1)*%
X83875000Y-63300000D03*
%TO.P,Q2,2,S*%
%TO.N,GND*%
X83875000Y-65200000D03*
%TO.P,Q2,3,D*%
%TO.N,Net-(D9-Pad4)*%
X85750000Y-64250000D03*
%TD*%
D40*
%TO.P,D6,1,K*%
%TO.N,/EN_LDO*%
X29912500Y-62350000D03*
%TO.P,D6,2,A*%
%TO.N,/BTN*%
X29912500Y-65650000D03*
%TD*%
D18*
%TO.P,C7,1*%
%TO.N,/VBUS*%
X50700000Y-55000000D03*
%TO.P,C7,2*%
%TO.N,GND*%
X52600000Y-55000000D03*
%TD*%
D41*
%TO.P,J2,1,Pin_1*%
%TO.N,/DRAIN1*%
X72415888Y-93650000D03*
%TO.P,J2,2,Pin_2*%
%TO.N,/SOUCE1*%
X77415888Y-93650000D03*
%TD*%
D42*
%TO.P,R12,1*%
%TO.N,/CHIP_PU*%
X76839924Y-61537500D03*
%TO.P,R12,2*%
%TO.N,+3.3V*%
X76839924Y-64462500D03*
%TD*%
D43*
%TO.P,U8,1,A*%
%TO.N,/GPIO9*%
X90700025Y-82149809D03*
%TO.P,U8,2,B*%
%TO.N,unconnected-(U8-Pad2)*%
X97299975Y-82149784D03*
%TO.P,U8,3,C*%
%TO.N,unconnected-(U8-Pad3)*%
X90700025Y-85850216D03*
%TO.P,U8,4,D*%
%TO.N,GND*%
X97299975Y-85850191D03*
%TD*%
D17*
%TO.P,SW1,1,1*%
%TO.N,Net-(R4-Pad1)*%
X47750000Y-79250000D03*
X47750000Y-85750000D03*
%TO.P,SW1,2,2*%
%TO.N,/VBUS*%
X52250000Y-79250000D03*
X52250000Y-85750000D03*
%TD*%
D44*
%TO.P,D1,1,K*%
%TO.N,/VBUS*%
X50500000Y-45000000D03*
%TO.P,D1,2,A*%
%TO.N,+BATT*%
X50500000Y-41000000D03*
%TD*%
D45*
%TO.P,R24,1*%
%TO.N,Net-(R24-Pad1)*%
X77269876Y-68645000D03*
%TO.P,R24,2*%
%TO.N,GND*%
X77269876Y-66995000D03*
%TD*%
D41*
%TO.P,J4,2,Pin_2*%
%TO.N,Net-(D5-Pad2)*%
X57415888Y-93650000D03*
%TO.P,J4,1,Pin_1*%
%TO.N,GND*%
X52415888Y-93650000D03*
%TD*%
D39*
%TO.P,Q1,1,G*%
%TO.N,Net-(Q1-Pad1)*%
X39062500Y-89050000D03*
%TO.P,Q1,2,S*%
%TO.N,GND*%
X39062500Y-90950000D03*
%TO.P,Q1,3,D*%
%TO.N,/SERVO1*%
X40937500Y-90000000D03*
%TD*%
D46*
%TO.P,C4,2*%
%TO.N,/HVBUS*%
X39000000Y-61950000D03*
%TO.P,C4,1*%
%TO.N,GND*%
X39000000Y-60050000D03*
%TD*%
D39*
%TO.P,Q3,1,G*%
%TO.N,Net-(Q3-Pad1)*%
X29975000Y-61050000D03*
%TO.P,Q3,2,S*%
%TO.N,GND*%
X29975000Y-62950000D03*
%TO.P,Q3,3,D*%
%TO.N,/SERVO2*%
X31850000Y-62000000D03*
%TD*%
D47*
%TO.P,C5,2*%
%TO.N,Net-(C5-Pad2)*%
X38000000Y-52050000D03*
%TO.P,C5,1*%
%TO.N,GND*%
X38000000Y-53950000D03*
%TD*%
D18*
%TO.P,C6,1*%
%TO.N,/VBUS*%
X52700000Y-50000000D03*
%TO.P,C6,2*%
%TO.N,GND*%
X54600000Y-50000000D03*
%TD*%
D26*
%TO.P,U13,1,AN*%
%TO.N,/SOUCE1_CONTROL*%
X79539752Y-72500000D03*
%TO.P,U13,2,CAT*%
%TO.N,Net-(R24-Pad1)*%
X76999746Y-72500000D03*
%TO.P,U13,3,EM*%
%TO.N,GNDPWR*%
X76999746Y-82500000D03*
%TO.P,U13,4,COL*%
%TO.N,Net-(R23-Pad2)*%
X79539752Y-82500000D03*
%TD*%
D38*
%TO.P,R27,1*%
%TO.N,Net-(R25-Pad1)*%
X64944876Y-88500000D03*
%TO.P,R27,2*%
%TO.N,GNDPWR*%
X66594876Y-88500000D03*
%TD*%
D14*
%TO.P,D3,1,K*%
%TO.N,/VBUS*%
X50512500Y-69642500D03*
%TO.P,D3,2,A*%
%TO.N,/VUSB*%
X54512500Y-69642500D03*
%TD*%
%TO.P,D2,2,A*%
%TO.N,Net-(C5-Pad2)*%
X47000000Y-50000000D03*
%TO.P,D2,1,K*%
%TO.N,/VBUS*%
X43000000Y-50000000D03*
%TD*%
D36*
%TO.P,R10,2*%
%TO.N,/GPIO5*%
X83662500Y-70250000D03*
%TO.P,R10,1*%
%TO.N,Net-(Q2-Pad1)*%
X81837500Y-70250000D03*
%TD*%
D38*
%TO.P,R25,1*%
%TO.N,Net-(R25-Pad1)*%
X64944876Y-85500000D03*
%TO.P,R25,2*%
%TO.N,GNDPWR*%
X66594876Y-85500000D03*
%TD*%
D46*
%TO.P,C15,1*%
%TO.N,/CHIP_PU*%
X40000000Y-95050000D03*
%TO.P,C15,2*%
%TO.N,GND*%
X40000000Y-96950000D03*
%TD*%
D38*
%TO.P,R26,1*%
%TO.N,Net-(R25-Pad1)*%
X64944876Y-87000000D03*
%TO.P,R26,2*%
%TO.N,GNDPWR*%
X66594876Y-87000000D03*
%TD*%
D30*
%TO.P,Q5,1,G*%
%TO.N,Net-(Q5-Pad1)*%
X78719876Y-85562500D03*
%TO.P,Q5,2,S*%
%TO.N,/HVBUS*%
X76819876Y-85562500D03*
%TO.P,Q5,3,D*%
%TO.N,/SOUCE1*%
X77769876Y-87437500D03*
%TD*%
D48*
%TO.P,R13,1*%
%TO.N,Net-(Q3-Pad1)*%
X91825000Y-51825000D03*
%TO.P,R13,2*%
%TO.N,/GPIO5*%
X90000000Y-51825000D03*
%TD*%
D44*
%TO.P,D5,2,A*%
%TO.N,Net-(D5-Pad2)*%
X57269876Y-87500000D03*
%TO.P,D5,1,K*%
%TO.N,/VBUS*%
X57269876Y-83500000D03*
%TD*%
D36*
%TO.P,R5,1*%
%TO.N,Net-(D7-Pad2)*%
X93087500Y-58825000D03*
%TO.P,R5,2*%
%TO.N,Net-(JP3-Pad1)*%
X94912500Y-58825000D03*
%TD*%
D49*
%TO.P,R22,1*%
%TO.N,/HVBUS*%
X82594876Y-88000000D03*
%TO.P,R22,2*%
%TO.N,Net-(Q5-Pad1)*%
X80944876Y-88000000D03*
%TD*%
D41*
%TO.P,J3,1,Pin_1*%
%TO.N,/INP1*%
X62415888Y-93650000D03*
%TO.P,J3,2,Pin_2*%
%TO.N,unconnected-(J3-Pad2)*%
X67415888Y-93650000D03*
%TD*%
D50*
%TO.P,D4,2,A*%
%TO.N,Net-(D4-Pad2)*%
X97000000Y-50762500D03*
%TO.P,D4,1,K*%
%TO.N,Net-(D4-Pad1)*%
X97000000Y-48887500D03*
%TD*%
D46*
%TO.P,C12,1*%
%TO.N,GND*%
X112500000Y-44550000D03*
%TO.P,C12,2*%
%TO.N,+3.3V*%
X112500000Y-46450000D03*
%TD*%
D12*
%TO.P,J8,1,Pin_1*%
%TO.N,/GPIO8*%
X27000000Y-44840000D03*
D13*
%TO.P,J8,2,Pin_2*%
%TO.N,/GPIO9*%
X27000000Y-47380000D03*
%TO.P,J8,3,Pin_3*%
%TO.N,/GPIO10*%
X27000000Y-49920000D03*
%TO.P,J8,4,Pin_4*%
%TO.N,/RX*%
X27000000Y-52460000D03*
%TO.P,J8,5,Pin_5*%
%TO.N,/TX*%
X27000000Y-55000000D03*
%TO.P,J8,6,Pin_6*%
%TO.N,unconnected-(J8-Pad6)*%
X27000000Y-57540000D03*
%TO.P,J8,7,Pin_7*%
%TO.N,unconnected-(J8-Pad7)*%
X27000000Y-60080000D03*
%TO.P,J8,8,Pin_8*%
%TO.N,unconnected-(J8-Pad8)*%
X27000000Y-62620000D03*
%TD*%
D36*
%TO.P,R9,1*%
%TO.N,/VBUS*%
X65525000Y-52364500D03*
%TO.P,R9,2*%
%TO.N,/SERVO1*%
X67350000Y-52364500D03*
%TD*%
D51*
%TO.P,C8,1*%
%TO.N,GND*%
X71000000Y-57000000D03*
%TO.P,C8,2*%
%TO.N,/VBUS*%
X71000000Y-56040000D03*
%TD*%
D35*
%TO.P,R28,1*%
%TO.N,/inp1*%
X65269876Y-69412500D03*
%TO.P,R28,2*%
%TO.N,GND*%
X65269876Y-67587500D03*
%TD*%
D36*
%TO.P,R14,1*%
%TO.N,/VBUS*%
X38452322Y-69030038D03*
%TO.P,R14,2*%
%TO.N,/SERVO2*%
X40277322Y-69030038D03*
%TD*%
D26*
%TO.P,U14,4,COL*%
%TO.N,+3.3V*%
X62500000Y-72500000D03*
%TO.P,U14,3,EM*%
%TO.N,/inp1*%
X65040006Y-72500000D03*
%TO.P,U14,2,CAT*%
%TO.N,Net-(R25-Pad1)*%
X65040006Y-82500000D03*
%TO.P,U14,1,AN*%
%TO.N,/INP1*%
X62500000Y-82500000D03*
%TD*%
D36*
%TO.P,R6,1*%
%TO.N,/BTN*%
X65787500Y-49000000D03*
%TO.P,R6,2*%
%TO.N,GND*%
X67612500Y-49000000D03*
%TD*%
D52*
%TO.P,D7,1,K*%
%TO.N,/EN_LDO*%
X58350000Y-47000000D03*
%TO.P,D7,2,A*%
%TO.N,Net-(D7-Pad2)*%
X61650000Y-47000000D03*
%TD*%
D53*
%TO.P,U5,6,IO4*%
%TO.N,/D-*%
X100862500Y-88721869D03*
%TO.P,U5,5,VP*%
%TO.N,/VUSB*%
X100862500Y-87771869D03*
%TO.P,U5,4,IO3*%
%TO.N,unconnected-(U5-Pad4)*%
X100862500Y-86821869D03*
%TO.P,U5,3,IO2*%
%TO.N,unconnected-(U5-Pad3)*%
X103137500Y-86821869D03*
%TO.P,U5,2,VN*%
%TO.N,GND*%
X103137500Y-87771869D03*
%TO.P,U5,1,IO1*%
%TO.N,/D+*%
X103137500Y-88721869D03*
%TD*%
D41*
%TO.P,J1,1,Pin_1*%
%TO.N,GNDPWR*%
X82415888Y-93650000D03*
%TO.P,J1,2,Pin_2*%
%TO.N,/HVBUS*%
X87415888Y-93650000D03*
%TD*%
D42*
%TO.P,R17,1*%
%TO.N,/GPIO8*%
X44000000Y-69537500D03*
%TO.P,R17,2*%
%TO.N,+3.3V*%
X44000000Y-72462500D03*
%TD*%
D45*
%TO.P,R20,1*%
%TO.N,Net-(R20-Pad1)*%
X71269876Y-68645000D03*
%TO.P,R20,2*%
%TO.N,GND*%
X71269876Y-66995000D03*
%TD*%
D42*
%TO.P,R15,1*%
%TO.N,/GPIO2*%
X70839924Y-61537500D03*
%TO.P,R15,2*%
%TO.N,+3.3V*%
X70839924Y-64462500D03*
%TD*%
D46*
%TO.P,C13,1*%
%TO.N,/GPIO9*%
X38000000Y-42050000D03*
%TO.P,C13,2*%
%TO.N,GND*%
X38000000Y-43950000D03*
%TD*%
D54*
%TO.P,U3,3,OUT*%
%TO.N,Net-(C5-Pad2)*%
X47050000Y-55435000D03*
%TO.P,U3,2,GND*%
%TO.N,GND*%
X47050000Y-57975000D03*
D55*
%TO.P,U3,1,IN*%
%TO.N,/HVBUS*%
X47050000Y-60515000D03*
%TD*%
D37*
%TO.P,C1,2*%
%TO.N,GND*%
X105180000Y-84171869D03*
%TO.P,C1,1*%
%TO.N,/D+*%
X104220000Y-84171869D03*
%TD*%
D43*
%TO.P,U10,1,A*%
%TO.N,/CHIP_PU*%
X109200025Y-82149809D03*
%TO.P,U10,2,B*%
%TO.N,unconnected-(U10-Pad2)*%
X115799975Y-82149784D03*
%TO.P,U10,3,C*%
%TO.N,unconnected-(U10-Pad3)*%
X109200025Y-85850216D03*
%TO.P,U10,4,D*%
%TO.N,GND*%
X115799975Y-85850191D03*
%TD*%
D56*
%TO.P,U6,16,VCC*%
%TO.N,/VBUS*%
X82445009Y-52235585D03*
%TO.P,U6,15,QA*%
%TO.N,unconnected-(U6-Pad15)*%
X81175006Y-52235585D03*
%TO.P,U6,14,SER*%
%TO.N,unconnected-(U6-Pad14)*%
X79905004Y-52235585D03*
%TO.P,U6,13,~{OE}*%
%TO.N,GND*%
X78635001Y-52235585D03*
%TO.P,U6,12,RCLK*%
%TO.N,Net-(U6-Pad11)*%
X77364999Y-52235585D03*
%TO.P,U6,11,SRCLK*%
X76094996Y-52235585D03*
%TO.P,U6,10,~{SRCLR}*%
%TO.N,GND*%
X74824994Y-52235585D03*
%TO.P,U6,9,QH'*%
%TO.N,unconnected-(U6-Pad9)*%
X73554991Y-52235585D03*
%TO.P,U6,8,GND*%
%TO.N,GND*%
X73554991Y-46764415D03*
%TO.P,U6,7,QH*%
%TO.N,Net-(DS1-Pad14)*%
X74824994Y-46764415D03*
%TO.P,U6,6,QG*%
%TO.N,Net-(DS1-Pad13)*%
X76094996Y-46764415D03*
%TO.P,U6,5,QF*%
%TO.N,Net-(DS1-Pad12)*%
X77364999Y-46764415D03*
%TO.P,U6,4,QE*%
%TO.N,Net-(DS1-Pad11)*%
X78635001Y-46764415D03*
%TO.P,U6,3,QD*%
%TO.N,Net-(DS1-Pad6)*%
X79905004Y-46764415D03*
%TO.P,U6,2,QC*%
%TO.N,unconnected-(U6-Pad2)*%
X81175006Y-46764415D03*
%TO.P,U6,1,QB*%
%TO.N,Net-(DS1-Pad4)*%
X82445009Y-46764415D03*
%TD*%
D12*
%TO.P,J5,1,Pin_1*%
%TO.N,GND*%
X25000000Y-85040000D03*
D13*
%TO.P,J5,2,Pin_2*%
%TO.N,/VBUS*%
X25000000Y-82500000D03*
%TO.P,J5,3,Pin_3*%
%TO.N,/SERVO1*%
X25000000Y-79960000D03*
%TD*%
D36*
%TO.P,R7,1*%
%TO.N,GND*%
X58337500Y-52000000D03*
%TO.P,R7,2*%
%TO.N,/EN_LDO*%
X60162500Y-52000000D03*
%TD*%
D33*
%TO.P,R3,1*%
%TO.N,Net-(D4-Pad2)*%
X97000000Y-53000000D03*
%TO.P,R3,2*%
%TO.N,+3.3V*%
X97000000Y-54825000D03*
%TD*%
D46*
%TO.P,C11,1*%
%TO.N,+3.3V*%
X112500000Y-40600000D03*
%TO.P,C11,2*%
%TO.N,GND*%
X112500000Y-42500000D03*
%TD*%
D57*
%TO.P,C9,1*%
%TO.N,+3.3V*%
X77000000Y-56040000D03*
%TO.P,C9,2*%
%TO.N,GND*%
X77000000Y-57000000D03*
%TD*%
D36*
%TO.P,R11,2*%
%TO.N,Net-(D9-Pad4)*%
X89750000Y-60250000D03*
%TO.P,R11,1*%
%TO.N,/VBUS*%
X87925000Y-60250000D03*
%TD*%
D58*
%TO.P,RV1,1,1*%
%TO.N,GND*%
X108000000Y-31450000D03*
%TO.P,RV1,2,2*%
%TO.N,Net-(DS1-Pad3)*%
X108000000Y-33990000D03*
%TO.P,RV1,3,3*%
%TO.N,/VBUS*%
X108000000Y-36530000D03*
%TD*%
D59*
%TO.N,GND*%
X93000000Y-93000000D03*
X112500000Y-43500000D03*
X101330000Y-84171869D03*
D60*
X105900000Y-57479822D03*
X105900000Y-59699822D03*
X105900000Y-58599822D03*
X107550000Y-58049822D03*
X106450000Y-59149822D03*
X107540000Y-59149822D03*
D59*
X106050000Y-84171869D03*
D60*
X105340000Y-58049822D03*
X105340000Y-59149822D03*
D59*
X103100000Y-87771869D03*
D60*
X107000000Y-59699822D03*
X106450000Y-58049822D03*
%TO.N,/D+*%
X107000000Y-57489822D03*
X107000000Y-58609822D03*
D59*
%TO.N,unconnected-(U5-Pad3)*%
X103100000Y-86771869D03*
%TD*%
D61*
%TO.N,GND*%
X93000000Y-95000000D02*
X93000000Y-93000000D01*
X93000000Y-95000000D02*
X93000000Y-97037500D01*
X93000000Y-97037500D02*
X92537500Y-97500000D01*
%TO.N,Net-(C3-Pad1)*%
X95462500Y-95562500D02*
X94900000Y-95000000D01*
X95462500Y-97500000D02*
X95462500Y-95562500D01*
X95462500Y-97500000D02*
X98050038Y-97500000D01*
D62*
%TO.N,/D-*%
X103306500Y-69273416D02*
X105150025Y-67429891D01*
X103306500Y-84025369D02*
X103306500Y-69273416D01*
%TO.N,/D+*%
X106097025Y-66942891D02*
X106649898Y-66390018D01*
X106097025Y-67837018D02*
X106097025Y-66942891D01*
%TO.N,/D-*%
X105150025Y-67429891D02*
X105150025Y-66390018D01*
%TO.N,/D+*%
X105827573Y-67837018D02*
X106097025Y-67837018D01*
X104073500Y-69591091D02*
X105827573Y-67837018D01*
X104073500Y-84025369D02*
X104073500Y-69591091D01*
%TO.N,/D-*%
X103306500Y-84025369D02*
X103160000Y-84171869D01*
%TO.N,/D+*%
X104073500Y-84025369D02*
X104220000Y-84171869D01*
D63*
%TO.N,GND*%
X112500000Y-42500000D02*
X112500000Y-43500000D01*
X112500000Y-43500000D02*
X112500000Y-44550000D01*
%TO.N,+3.3V*%
X112400000Y-40600000D02*
X112500000Y-40600000D01*
X111148000Y-45163265D02*
X111148000Y-41852000D01*
X111148000Y-41852000D02*
X112400000Y-40600000D01*
X112434735Y-46450000D02*
X111148000Y-45163265D01*
X112500000Y-46450000D02*
X112434735Y-46450000D01*
X112649898Y-46599898D02*
X112500000Y-46450000D01*
X112649898Y-48889890D02*
X112649898Y-46599898D01*
D61*
%TO.N,Net-(DS1-Pad4)*%
X82445009Y-46681915D02*
X82445009Y-46764415D01*
X94440000Y-42000000D02*
X92082500Y-44357500D01*
%TO.N,Net-(DS1-Pad6)*%
X82040509Y-43930500D02*
X87429500Y-43930500D01*
X79905004Y-46764415D02*
X79905004Y-46066005D01*
%TO.N,Net-(DS1-Pad11)*%
X78635001Y-44177501D02*
X78635001Y-46764415D01*
X76600000Y-42142500D02*
X78635001Y-44177501D01*
%TO.N,Net-(DS1-Pad12)*%
X77364999Y-45447499D02*
X77364999Y-46764415D01*
X74060000Y-42142500D02*
X77364999Y-45447499D01*
%TO.N,Net-(DS1-Pad6)*%
X87429500Y-43930500D02*
X89360000Y-42000000D01*
%TO.N,Net-(DS1-Pad13)*%
X76094996Y-46330004D02*
X76094996Y-46764415D01*
%TO.N,Net-(DS1-Pad6)*%
X79905004Y-46066005D02*
X82040509Y-43930500D01*
%TO.N,Net-(DS1-Pad13)*%
X75124411Y-45359419D02*
X76094996Y-46330004D01*
X74939419Y-45359419D02*
X75124411Y-45359419D01*
X71722500Y-42142500D02*
X74939419Y-45359419D01*
X71520000Y-42142500D02*
X71722500Y-42142500D01*
%TO.N,Net-(DS1-Pad14)*%
X72852489Y-44357500D02*
X74824994Y-46330005D01*
X71397500Y-44357500D02*
X72852489Y-44357500D01*
X68980000Y-42142500D02*
X69182500Y-42142500D01*
%TO.N,/VBUS*%
X82445009Y-50554991D02*
X82445009Y-52235585D01*
X88215500Y-44784500D02*
X82445009Y-50554991D01*
X95617000Y-41298471D02*
X95617000Y-42970029D01*
%TO.N,Net-(DS1-Pad4)*%
X84769424Y-44357500D02*
X82445009Y-46681915D01*
%TO.N,/VBUS*%
X96492471Y-40423000D02*
X95617000Y-41298471D01*
X100823000Y-44362000D02*
X100823000Y-43505500D01*
X98500000Y-46500000D02*
X98685000Y-46500000D01*
%TO.N,Net-(U6-Pad11)*%
X77364999Y-52235585D02*
X76094996Y-52235585D01*
%TO.N,/VBUS*%
X97740500Y-40423000D02*
X96492471Y-40423000D01*
X95617000Y-42970029D02*
X93802529Y-44784500D01*
X98685000Y-46500000D02*
X100823000Y-44362000D01*
%TO.N,Net-(DS1-Pad14)*%
X69182500Y-42142500D02*
X71397500Y-44357500D01*
%TO.N,/VBUS*%
X93802529Y-44784500D02*
X88215500Y-44784500D01*
%TO.N,Net-(DS1-Pad14)*%
X74824994Y-46330005D02*
X74824994Y-46764415D01*
%TO.N,Net-(DS1-Pad4)*%
X92082500Y-44357500D02*
X84769424Y-44357500D01*
%TO.N,/VBUS*%
X100823000Y-43505500D02*
X97740500Y-40423000D01*
%TO.N,Net-(U2-Pad2)*%
X37517487Y-36177000D02*
X47482513Y-36177000D01*
%TO.N,GND*%
X42500000Y-29809500D02*
X49190500Y-29809500D01*
X49190500Y-29809500D02*
X49500000Y-29500000D01*
%TO.N,Net-(U2-Pad2)*%
X47482513Y-36177000D02*
X53850013Y-29809500D01*
X31149987Y-29809500D02*
X37517487Y-36177000D01*
X70000000Y-29809500D02*
X64309500Y-29809500D01*
X64309500Y-29809500D02*
X60500000Y-26000000D01*
X60500000Y-26000000D02*
X57659513Y-26000000D01*
X57659513Y-26000000D02*
X53850013Y-29809500D01*
%TO.N,+BATT*%
X56000000Y-35500000D02*
X56000000Y-32459487D01*
X50500000Y-41000000D02*
X56000000Y-35500000D01*
X56000000Y-32459487D02*
X58649987Y-29809500D01*
X72413488Y-35086512D02*
X77690500Y-29809500D01*
X67586512Y-35086512D02*
X72413488Y-35086512D01*
X62309500Y-29809500D02*
X67586512Y-35086512D01*
X58649987Y-29809500D02*
X62309500Y-29809500D01*
X77690500Y-29809500D02*
X81350013Y-29809500D01*
%TO.N,Net-(C3-Pad1)*%
X106949962Y-97500000D02*
X106949962Y-91999873D01*
X98050038Y-97500000D02*
X106949962Y-97500000D01*
X98050038Y-97500000D02*
X98050038Y-91999873D01*
%TO.N,Net-(DS1-Pad3)*%
X99764500Y-44784500D02*
X96980000Y-42000000D01*
%TO.N,Net-(DS1-Pad15)*%
X68077000Y-43577000D02*
X66500000Y-42000000D01*
X68077000Y-44462000D02*
X68077000Y-43577000D01*
X70060000Y-46445000D02*
X68077000Y-44462000D01*
D64*
%TO.N,GNDPWR*%
X72096876Y-97327000D02*
X78938952Y-97327000D01*
X70365888Y-95596012D02*
X72096876Y-97327000D01*
X78938952Y-97327000D02*
X82415888Y-93850064D01*
X70365888Y-87516488D02*
X70365888Y-95596012D01*
X82415888Y-93850064D02*
X82415888Y-93650000D01*
D65*
%TO.N,GND*%
X103137500Y-87771869D02*
X103100000Y-87771869D01*
D66*
X72679847Y-57000000D02*
X72699898Y-57020051D01*
X77000000Y-57000000D02*
X72719949Y-57000000D01*
D61*
X105180000Y-84171869D02*
X106050000Y-84171869D01*
D66*
X71000000Y-57000000D02*
X72679847Y-57000000D01*
D61*
X102200000Y-84171869D02*
X101330000Y-84171869D01*
D66*
X72719949Y-57000000D02*
X72699898Y-57020051D01*
D62*
%TO.N,/D-*%
X102038739Y-86310608D02*
X103300000Y-85049347D01*
D67*
X102000000Y-86271869D02*
X102000000Y-88385869D01*
D62*
X101700025Y-91599822D02*
X101700025Y-88685844D01*
X103306500Y-84665369D02*
X103306500Y-84318369D01*
X101700025Y-88685844D02*
X101856000Y-88529869D01*
X102000000Y-86271869D02*
X102038739Y-86310608D01*
X103306500Y-84318369D02*
X103160000Y-84171869D01*
X103300000Y-85049347D02*
X103300000Y-84671869D01*
X103300000Y-84671869D02*
X103306500Y-84665369D01*
D67*
X102000000Y-88385869D02*
X101856000Y-88529869D01*
D62*
%TO.N,/D+*%
X104320000Y-86371869D02*
X104320000Y-88199392D01*
X104073500Y-84645369D02*
X104073500Y-84318369D01*
X104073500Y-84318369D02*
X104220000Y-84171869D01*
X104100000Y-86151869D02*
X104320000Y-86371869D01*
X104320000Y-88199392D02*
X102499873Y-90019519D01*
X104100000Y-84671869D02*
X104100000Y-86151869D01*
X102499873Y-90019519D02*
X102499873Y-91599822D01*
X104100000Y-84671869D02*
X104073500Y-84645369D01*
D65*
%TO.N,/VUSB*%
X100122183Y-89421869D02*
X99800000Y-89099686D01*
X100899924Y-90171793D02*
X100150000Y-89421869D01*
X99800000Y-88344052D02*
X100372183Y-87771869D01*
X100150000Y-89421869D02*
X100122183Y-89421869D01*
X100899924Y-91599822D02*
X100899924Y-90171793D01*
X99800000Y-89099686D02*
X99800000Y-88344052D01*
X100372183Y-87771869D02*
X100862500Y-87771869D01*
D61*
%TO.N,GNDPWR*%
X67594876Y-88500000D02*
X68769876Y-87325000D01*
D64*
X72319876Y-85562500D02*
X70365888Y-87516488D01*
D61*
X66594876Y-85500000D02*
X66594876Y-88500000D01*
X70174400Y-87325000D02*
X70365888Y-87516488D01*
X66594876Y-88500000D02*
X67594876Y-88500000D01*
X68769876Y-87325000D02*
X70174400Y-87325000D01*
D64*
%TO.N,/DRAIN1*%
X73269876Y-87437500D02*
X73269876Y-92796012D01*
X73269876Y-92796012D02*
X72415888Y-93650000D01*
D61*
%TO.N,Net-(Q5-Pad1)*%
X78782376Y-85500000D02*
X78719876Y-85562500D01*
X80944876Y-85500000D02*
X78782376Y-85500000D01*
X80944876Y-85500000D02*
X80944876Y-88000000D01*
D64*
%TO.N,/SOUCE1*%
X77769876Y-87437500D02*
X77769876Y-93296012D01*
X77769876Y-93296012D02*
X77415888Y-93650000D01*
D61*
%TO.N,/inp1*%
X65040006Y-72500000D02*
X65040006Y-69642370D01*
X65040006Y-69642370D02*
X65269876Y-69412500D01*
%TO.N,/HVBUS*%
X82594876Y-88000000D02*
X82594876Y-91375000D01*
D64*
X78265026Y-95700000D02*
X76566750Y-95700000D01*
X82369876Y-91600000D02*
X81566750Y-91600000D01*
X85365888Y-91600000D02*
X82369876Y-91600000D01*
X80269876Y-92896874D02*
X80269876Y-93695150D01*
X87415888Y-93650000D02*
X85365888Y-91600000D01*
X75269876Y-87112500D02*
X76819876Y-85562500D01*
X76566750Y-95700000D02*
X75269876Y-94403126D01*
D61*
X74039752Y-82500000D02*
X74039752Y-82782376D01*
X82594876Y-91375000D02*
X82369876Y-91600000D01*
D64*
X75269876Y-94403126D02*
X75269876Y-87112500D01*
X80269876Y-93695150D02*
X78265026Y-95700000D01*
D61*
X74039752Y-82782376D02*
X76819876Y-85562500D01*
D64*
X81566750Y-91600000D02*
X80269876Y-92896874D01*
D65*
%TO.N,/INP1*%
X62415888Y-82584112D02*
X62500000Y-82500000D01*
X62415888Y-93650000D02*
X62415888Y-82584112D01*
D61*
%TO.N,Net-(D5-Pad2)*%
X57415888Y-93650000D02*
X57415888Y-87646012D01*
X57415888Y-87646012D02*
X57269876Y-87500000D01*
%TO.N,Net-(R19-Pad1)*%
X69594876Y-82500000D02*
X71499746Y-82500000D01*
X68769876Y-81675000D02*
X69594876Y-82500000D01*
D65*
%TO.N,unconnected-(U5-Pad3)*%
X103137500Y-86821869D02*
X103137500Y-86809369D01*
X103137500Y-86809369D02*
X103100000Y-86771869D01*
D61*
%TO.N,Net-(R25-Pad1)*%
X64944876Y-87000000D02*
X64944876Y-85500000D01*
X65040006Y-85404870D02*
X65040006Y-82500000D01*
X64944876Y-88500000D02*
X64944876Y-87000000D01*
X64944876Y-85500000D02*
X65040006Y-85404870D01*
%TO.N,Net-(R23-Pad2)*%
X82539752Y-85500000D02*
X79539752Y-82500000D01*
X82594876Y-85500000D02*
X82539752Y-85500000D01*
%TD*%
M02*
