%TF.GenerationSoftware,KiCad,Pcbnew,(6.0.9)*%
%TF.CreationDate,2022-11-21T22:50:26+02:00*%
%TF.ProjectId,Elekit2.0,456c656b-6974-4322-9e30-2e6b69636164,rev?*%
%TF.SameCoordinates,Original*%
%TF.FileFunction,Legend,Bot*%
%TF.FilePolarity,Positive*%
%FSLAX46Y46*%
G04 Gerber Fmt 4.6, Leading zero omitted, Abs format (unit mm)*
G04 Created by KiCad (PCBNEW (6.0.9)) date 2022-11-21 22:50:26*
%MOMM*%
%LPD*%
G01*
G04 APERTURE LIST*
G04 Aperture macros list*
%AMFreePoly0*
4,1,20,0.000000,0.744959,0.073905,0.744508,0.209726,0.703889,0.328688,0.626782,0.421226,0.519385,0.479903,0.390333,0.500000,0.250000,0.500000,-0.250000,0.499851,-0.262216,0.476331,-0.402017,0.414519,-0.529596,0.319384,-0.634700,0.198574,-0.708877,0.061801,-0.746166,0.000000,-0.745033,0.000000,-0.750000,-0.500000,-0.750000,-0.500000,0.750000,0.000000,0.750000,0.000000,0.744959,
0.000000,0.744959,$1*%
%AMFreePoly1*
4,1,22,0.500000,-0.750000,0.000000,-0.750000,0.000000,-0.745033,-0.079941,-0.743568,-0.215256,-0.701293,-0.333266,-0.622738,-0.424486,-0.514219,-0.481581,-0.384460,-0.499164,-0.250000,-0.500000,-0.250000,-0.500000,0.250000,-0.499164,0.250000,-0.499963,0.256109,-0.478152,0.396186,-0.417904,0.524511,-0.324060,0.630769,-0.204165,0.706417,-0.067858,0.745374,0.000000,0.744959,0.000000,0.750000,
0.500000,0.750000,0.500000,-0.750000,0.500000,-0.750000,$1*%
G04 Aperture macros list end*
%ADD10C,0.250000*%
%ADD11C,0.150000*%
%ADD12C,0.120000*%
%ADD13R,1.700000X1.700000*%
%ADD14O,1.700000X1.700000*%
%ADD15FreePoly0,90.000000*%
%ADD16FreePoly1,90.000000*%
%ADD17R,0.900000X1.500000*%
%ADD18C,2.000000*%
%ADD19O,1.800000X2.600000*%
%ADD20R,1.800000X2.600000*%
%ADD21C,3.000000*%
%ADD22R,1.500000X1.500000*%
%ADD23C,1.500000*%
%ADD24C,3.200000*%
%ADD25C,0.900025*%
%ADD26C,2.200000*%
%ADD27O,2.000000X1.905000*%
%ADD28R,2.000000X1.905000*%
%ADD29FreePoly1,180.000000*%
%ADD30FreePoly0,180.000000*%
%ADD31C,1.440000*%
G04 APERTURE END LIST*
D10*
X106714285Y-23678571D02*
X106714285Y-22178571D01*
X106357142Y-22178571D01*
X106142857Y-22250000D01*
X106000000Y-22392857D01*
X105928571Y-22535714D01*
X105857142Y-22821428D01*
X105857142Y-23035714D01*
X105928571Y-23321428D01*
X106000000Y-23464285D01*
X106142857Y-23607142D01*
X106357142Y-23678571D01*
X106714285Y-23678571D01*
X105285714Y-23607142D02*
X105071428Y-23678571D01*
X104714285Y-23678571D01*
X104571428Y-23607142D01*
X104500000Y-23535714D01*
X104428571Y-23392857D01*
X104428571Y-23250000D01*
X104500000Y-23107142D01*
X104571428Y-23035714D01*
X104714285Y-22964285D01*
X105000000Y-22892857D01*
X105142857Y-22821428D01*
X105214285Y-22750000D01*
X105285714Y-22607142D01*
X105285714Y-22464285D01*
X105214285Y-22321428D01*
X105142857Y-22250000D01*
X105000000Y-22178571D01*
X104642857Y-22178571D01*
X104428571Y-22250000D01*
X103000000Y-23678571D02*
X103857142Y-23678571D01*
X103428571Y-23678571D02*
X103428571Y-22178571D01*
X103571428Y-22392857D01*
X103714285Y-22535714D01*
X103857142Y-22607142D01*
X102142857Y-22821428D02*
X102285714Y-22750000D01*
X102357142Y-22678571D01*
X102428571Y-22535714D01*
X102428571Y-22464285D01*
X102357142Y-22321428D01*
X102285714Y-22250000D01*
X102142857Y-22178571D01*
X101857142Y-22178571D01*
X101714285Y-22250000D01*
X101642857Y-22321428D01*
X101571428Y-22464285D01*
X101571428Y-22535714D01*
X101642857Y-22678571D01*
X101714285Y-22750000D01*
X101857142Y-22821428D01*
X102142857Y-22821428D01*
X102285714Y-22892857D01*
X102357142Y-22964285D01*
X102428571Y-23107142D01*
X102428571Y-23392857D01*
X102357142Y-23535714D01*
X102285714Y-23607142D01*
X102142857Y-23678571D01*
X101857142Y-23678571D01*
X101714285Y-23607142D01*
X101642857Y-23535714D01*
X101571428Y-23392857D01*
X101571428Y-23107142D01*
X101642857Y-22964285D01*
X101714285Y-22892857D01*
X101857142Y-22821428D01*
X100428571Y-22892857D02*
X100214285Y-22964285D01*
X100142857Y-23035714D01*
X100071428Y-23178571D01*
X100071428Y-23392857D01*
X100142857Y-23535714D01*
X100214285Y-23607142D01*
X100357142Y-23678571D01*
X100928571Y-23678571D01*
X100928571Y-22178571D01*
X100428571Y-22178571D01*
X100285714Y-22250000D01*
X100214285Y-22321428D01*
X100142857Y-22464285D01*
X100142857Y-22607142D01*
X100214285Y-22750000D01*
X100285714Y-22821428D01*
X100428571Y-22892857D01*
X100928571Y-22892857D01*
X99500000Y-22321428D02*
X99428571Y-22250000D01*
X99285714Y-22178571D01*
X98928571Y-22178571D01*
X98785714Y-22250000D01*
X98714285Y-22321428D01*
X98642857Y-22464285D01*
X98642857Y-22607142D01*
X98714285Y-22821428D01*
X99571428Y-23678571D01*
X98642857Y-23678571D01*
X97714285Y-22178571D02*
X97571428Y-22178571D01*
X97428571Y-22250000D01*
X97357142Y-22321428D01*
X97285714Y-22464285D01*
X97214285Y-22750000D01*
X97214285Y-23107142D01*
X97285714Y-23392857D01*
X97357142Y-23535714D01*
X97428571Y-23607142D01*
X97571428Y-23678571D01*
X97714285Y-23678571D01*
X97857142Y-23607142D01*
X97928571Y-23535714D01*
X98000000Y-23392857D01*
X98071428Y-23107142D01*
X98071428Y-22750000D01*
X98000000Y-22464285D01*
X97928571Y-22321428D01*
X97857142Y-22250000D01*
X97714285Y-22178571D01*
X104091071Y-27087809D02*
X103162500Y-27087809D01*
X103662500Y-27697333D01*
X103448214Y-27697333D01*
X103305357Y-27773523D01*
X103233928Y-27849714D01*
X103162500Y-28002095D01*
X103162500Y-28383047D01*
X103233928Y-28535428D01*
X103305357Y-28611619D01*
X103448214Y-28687809D01*
X103876785Y-28687809D01*
X104019642Y-28611619D01*
X104091071Y-28535428D01*
X102733928Y-27087809D02*
X102233928Y-28687809D01*
X101733928Y-27087809D01*
X101376785Y-27087809D02*
X100448214Y-27087809D01*
X100948214Y-27697333D01*
X100733928Y-27697333D01*
X100591071Y-27773523D01*
X100519642Y-27849714D01*
X100448214Y-28002095D01*
X100448214Y-28383047D01*
X100519642Y-28535428D01*
X100591071Y-28611619D01*
X100733928Y-28687809D01*
X101162500Y-28687809D01*
X101305357Y-28611619D01*
X101376785Y-28535428D01*
X102091071Y-31263809D02*
X102091071Y-29663809D01*
X101091071Y-29663809D02*
X100805357Y-29663809D01*
X100662500Y-29740000D01*
X100519642Y-29892380D01*
X100448214Y-30197142D01*
X100448214Y-30730476D01*
X100519642Y-31035238D01*
X100662500Y-31187619D01*
X100805357Y-31263809D01*
X101091071Y-31263809D01*
X101233928Y-31187619D01*
X101376785Y-31035238D01*
X101448214Y-30730476D01*
X101448214Y-30197142D01*
X101376785Y-29892380D01*
X101233928Y-29740000D01*
X101091071Y-29663809D01*
X103591071Y-32316000D02*
X103733928Y-32239809D01*
X103948214Y-32239809D01*
X104162500Y-32316000D01*
X104305357Y-32468380D01*
X104376785Y-32620761D01*
X104448214Y-32925523D01*
X104448214Y-33154095D01*
X104376785Y-33458857D01*
X104305357Y-33611238D01*
X104162500Y-33763619D01*
X103948214Y-33839809D01*
X103805357Y-33839809D01*
X103591071Y-33763619D01*
X103519642Y-33687428D01*
X103519642Y-33154095D01*
X103805357Y-33154095D01*
X102876785Y-33839809D02*
X102876785Y-32239809D01*
X102019642Y-33839809D01*
X102019642Y-32239809D01*
X101305357Y-33839809D02*
X101305357Y-32239809D01*
X100948214Y-32239809D01*
X100733928Y-32316000D01*
X100591071Y-32468380D01*
X100519642Y-32620761D01*
X100448214Y-32925523D01*
X100448214Y-33154095D01*
X100519642Y-33458857D01*
X100591071Y-33611238D01*
X100733928Y-33763619D01*
X100948214Y-33839809D01*
X101305357Y-33839809D01*
X92392857Y-23678571D02*
X92392857Y-22178571D01*
X92035714Y-22178571D01*
X91821428Y-22250000D01*
X91678571Y-22392857D01*
X91607142Y-22535714D01*
X91535714Y-22821428D01*
X91535714Y-23035714D01*
X91607142Y-23321428D01*
X91678571Y-23464285D01*
X91821428Y-23607142D01*
X92035714Y-23678571D01*
X92392857Y-23678571D01*
X90892857Y-23678571D02*
X90892857Y-22178571D01*
X90892857Y-22892857D02*
X90035714Y-22892857D01*
X90035714Y-23678571D02*
X90035714Y-22178571D01*
X89535714Y-22178571D02*
X88678571Y-22178571D01*
X89107142Y-23678571D02*
X89107142Y-22178571D01*
X87392857Y-23678571D02*
X88250000Y-23678571D01*
X87821428Y-23678571D02*
X87821428Y-22178571D01*
X87964285Y-22392857D01*
X88107142Y-22535714D01*
X88250000Y-22607142D01*
X85964285Y-23678571D02*
X86821428Y-23678571D01*
X86392857Y-23678571D02*
X86392857Y-22178571D01*
X86535714Y-22392857D01*
X86678571Y-22535714D01*
X86821428Y-22607142D01*
X84250000Y-22107142D02*
X85535714Y-24035714D01*
X83821428Y-22321428D02*
X83750000Y-22250000D01*
X83607142Y-22178571D01*
X83250000Y-22178571D01*
X83107142Y-22250000D01*
X83035714Y-22321428D01*
X82964285Y-22464285D01*
X82964285Y-22607142D01*
X83035714Y-22821428D01*
X83892857Y-23678571D01*
X82964285Y-23678571D01*
X82392857Y-22321428D02*
X82321428Y-22250000D01*
X82178571Y-22178571D01*
X81821428Y-22178571D01*
X81678571Y-22250000D01*
X81607142Y-22321428D01*
X81535714Y-22464285D01*
X81535714Y-22607142D01*
X81607142Y-22821428D01*
X82464285Y-23678571D01*
X81535714Y-23678571D01*
X95091071Y-26759809D02*
X94162500Y-26759809D01*
X94662500Y-27369333D01*
X94448214Y-27369333D01*
X94305357Y-27445523D01*
X94233928Y-27521714D01*
X94162500Y-27674095D01*
X94162500Y-28055047D01*
X94233928Y-28207428D01*
X94305357Y-28283619D01*
X94448214Y-28359809D01*
X94876785Y-28359809D01*
X95019642Y-28283619D01*
X95091071Y-28207428D01*
X93733928Y-26759809D02*
X93233928Y-28359809D01*
X92733928Y-26759809D01*
X92376785Y-26759809D02*
X91448214Y-26759809D01*
X91948214Y-27369333D01*
X91733928Y-27369333D01*
X91591071Y-27445523D01*
X91519642Y-27521714D01*
X91448214Y-27674095D01*
X91448214Y-28055047D01*
X91519642Y-28207428D01*
X91591071Y-28283619D01*
X91733928Y-28359809D01*
X92162500Y-28359809D01*
X92305357Y-28283619D01*
X92376785Y-28207428D01*
X93091071Y-30935809D02*
X93091071Y-29335809D01*
X92091071Y-29335809D02*
X91805357Y-29335809D01*
X91662500Y-29412000D01*
X91519642Y-29564380D01*
X91448214Y-29869142D01*
X91448214Y-30402476D01*
X91519642Y-30707238D01*
X91662500Y-30859619D01*
X91805357Y-30935809D01*
X92091071Y-30935809D01*
X92233928Y-30859619D01*
X92376785Y-30707238D01*
X92448214Y-30402476D01*
X92448214Y-29869142D01*
X92376785Y-29564380D01*
X92233928Y-29412000D01*
X92091071Y-29335809D01*
X93876785Y-33511809D02*
X93876785Y-31911809D01*
X93019642Y-33511809D01*
X93019642Y-31911809D01*
X91448214Y-33359428D02*
X91519642Y-33435619D01*
X91733928Y-33511809D01*
X91876785Y-33511809D01*
X92091071Y-33435619D01*
X92233928Y-33283238D01*
X92305357Y-33130857D01*
X92376785Y-32826095D01*
X92376785Y-32597523D01*
X92305357Y-32292761D01*
X92233928Y-32140380D01*
X92091071Y-31988000D01*
X91876785Y-31911809D01*
X91733928Y-31911809D01*
X91519642Y-31988000D01*
X91448214Y-32064190D01*
X94591071Y-34564000D02*
X94733928Y-34487809D01*
X94948214Y-34487809D01*
X95162500Y-34564000D01*
X95305357Y-34716380D01*
X95376785Y-34868761D01*
X95448214Y-35173523D01*
X95448214Y-35402095D01*
X95376785Y-35706857D01*
X95305357Y-35859238D01*
X95162500Y-36011619D01*
X94948214Y-36087809D01*
X94805357Y-36087809D01*
X94591071Y-36011619D01*
X94519642Y-35935428D01*
X94519642Y-35402095D01*
X94805357Y-35402095D01*
X93876785Y-36087809D02*
X93876785Y-34487809D01*
X93019642Y-36087809D01*
X93019642Y-34487809D01*
X92305357Y-36087809D02*
X92305357Y-34487809D01*
X91948214Y-34487809D01*
X91733928Y-34564000D01*
X91591071Y-34716380D01*
X91519642Y-34868761D01*
X91448214Y-35173523D01*
X91448214Y-35402095D01*
X91519642Y-35706857D01*
X91591071Y-35859238D01*
X91733928Y-36011619D01*
X91948214Y-36087809D01*
X92305357Y-36087809D01*
D11*
%TO.C,J10*%
X25809523Y-29622380D02*
X25809523Y-30336666D01*
X25857142Y-30479523D01*
X25952380Y-30574761D01*
X26095238Y-30622380D01*
X26190476Y-30622380D01*
X24809523Y-30622380D02*
X25380952Y-30622380D01*
X25095238Y-30622380D02*
X25095238Y-29622380D01*
X25190476Y-29765238D01*
X25285714Y-29860476D01*
X25380952Y-29908095D01*
X24190476Y-29622380D02*
X24095238Y-29622380D01*
X24000000Y-29670000D01*
X23952380Y-29717619D01*
X23904761Y-29812857D01*
X23857142Y-30003333D01*
X23857142Y-30241428D01*
X23904761Y-30431904D01*
X23952380Y-30527142D01*
X24000000Y-30574761D01*
X24095238Y-30622380D01*
X24190476Y-30622380D01*
X24285714Y-30574761D01*
X24333333Y-30527142D01*
X24380952Y-30431904D01*
X24428571Y-30241428D01*
X24428571Y-30003333D01*
X24380952Y-29812857D01*
X24333333Y-29717619D01*
X24285714Y-29670000D01*
X24190476Y-29622380D01*
%TO.C,JP9*%
X93752380Y-81666666D02*
X94466666Y-81666666D01*
X94609523Y-81619047D01*
X94704761Y-81523809D01*
X94752380Y-81380952D01*
X94752380Y-81285714D01*
X94752380Y-82142857D02*
X93752380Y-82142857D01*
X93752380Y-82523809D01*
X93800000Y-82619047D01*
X93847619Y-82666666D01*
X93942857Y-82714285D01*
X94085714Y-82714285D01*
X94180952Y-82666666D01*
X94228571Y-82619047D01*
X94276190Y-82523809D01*
X94276190Y-82142857D01*
X94752380Y-83190476D02*
X94752380Y-83380952D01*
X94704761Y-83476190D01*
X94657142Y-83523809D01*
X94514285Y-83619047D01*
X94323809Y-83666666D01*
X93942857Y-83666666D01*
X93847619Y-83619047D01*
X93800000Y-83571428D01*
X93752380Y-83476190D01*
X93752380Y-83285714D01*
X93800000Y-83190476D01*
X93847619Y-83142857D01*
X93942857Y-83095238D01*
X94180952Y-83095238D01*
X94276190Y-83142857D01*
X94323809Y-83190476D01*
X94371428Y-83285714D01*
X94371428Y-83476190D01*
X94323809Y-83571428D01*
X94276190Y-83619047D01*
X94180952Y-83666666D01*
%TO.C,JP8*%
X78752380Y-81666666D02*
X79466666Y-81666666D01*
X79609523Y-81619047D01*
X79704761Y-81523809D01*
X79752380Y-81380952D01*
X79752380Y-81285714D01*
X79752380Y-82142857D02*
X78752380Y-82142857D01*
X78752380Y-82523809D01*
X78800000Y-82619047D01*
X78847619Y-82666666D01*
X78942857Y-82714285D01*
X79085714Y-82714285D01*
X79180952Y-82666666D01*
X79228571Y-82619047D01*
X79276190Y-82523809D01*
X79276190Y-82142857D01*
X79180952Y-83285714D02*
X79133333Y-83190476D01*
X79085714Y-83142857D01*
X78990476Y-83095238D01*
X78942857Y-83095238D01*
X78847619Y-83142857D01*
X78800000Y-83190476D01*
X78752380Y-83285714D01*
X78752380Y-83476190D01*
X78800000Y-83571428D01*
X78847619Y-83619047D01*
X78942857Y-83666666D01*
X78990476Y-83666666D01*
X79085714Y-83619047D01*
X79133333Y-83571428D01*
X79180952Y-83476190D01*
X79180952Y-83285714D01*
X79228571Y-83190476D01*
X79276190Y-83142857D01*
X79371428Y-83095238D01*
X79561904Y-83095238D01*
X79657142Y-83142857D01*
X79704761Y-83190476D01*
X79752380Y-83285714D01*
X79752380Y-83476190D01*
X79704761Y-83571428D01*
X79657142Y-83619047D01*
X79561904Y-83666666D01*
X79371428Y-83666666D01*
X79276190Y-83619047D01*
X79228571Y-83571428D01*
X79180952Y-83476190D01*
%TO.C,JP7*%
X66252380Y-29166666D02*
X66966666Y-29166666D01*
X67109523Y-29119047D01*
X67204761Y-29023809D01*
X67252380Y-28880952D01*
X67252380Y-28785714D01*
X67252380Y-29642857D02*
X66252380Y-29642857D01*
X66252380Y-30023809D01*
X66300000Y-30119047D01*
X66347619Y-30166666D01*
X66442857Y-30214285D01*
X66585714Y-30214285D01*
X66680952Y-30166666D01*
X66728571Y-30119047D01*
X66776190Y-30023809D01*
X66776190Y-29642857D01*
X66252380Y-30547619D02*
X66252380Y-31214285D01*
X67252380Y-30785714D01*
%TO.C,JP6*%
X41252380Y-29166666D02*
X41966666Y-29166666D01*
X42109523Y-29119047D01*
X42204761Y-29023809D01*
X42252380Y-28880952D01*
X42252380Y-28785714D01*
X42252380Y-29642857D02*
X41252380Y-29642857D01*
X41252380Y-30023809D01*
X41300000Y-30119047D01*
X41347619Y-30166666D01*
X41442857Y-30214285D01*
X41585714Y-30214285D01*
X41680952Y-30166666D01*
X41728571Y-30119047D01*
X41776190Y-30023809D01*
X41776190Y-29642857D01*
X41252380Y-31071428D02*
X41252380Y-30880952D01*
X41300000Y-30785714D01*
X41347619Y-30738095D01*
X41490476Y-30642857D01*
X41680952Y-30595238D01*
X42061904Y-30595238D01*
X42157142Y-30642857D01*
X42204761Y-30690476D01*
X42252380Y-30785714D01*
X42252380Y-30976190D01*
X42204761Y-31071428D01*
X42157142Y-31119047D01*
X42061904Y-31166666D01*
X41823809Y-31166666D01*
X41728571Y-31119047D01*
X41680952Y-31071428D01*
X41633333Y-30976190D01*
X41633333Y-30785714D01*
X41680952Y-30690476D01*
X41728571Y-30642857D01*
X41823809Y-30595238D01*
%TO.C,D12*%
X89452380Y-81285714D02*
X88452380Y-81285714D01*
X88452380Y-81523809D01*
X88500000Y-81666666D01*
X88595238Y-81761904D01*
X88690476Y-81809523D01*
X88880952Y-81857142D01*
X89023809Y-81857142D01*
X89214285Y-81809523D01*
X89309523Y-81761904D01*
X89404761Y-81666666D01*
X89452380Y-81523809D01*
X89452380Y-81285714D01*
X89452380Y-82809523D02*
X89452380Y-82238095D01*
X89452380Y-82523809D02*
X88452380Y-82523809D01*
X88595238Y-82428571D01*
X88690476Y-82333333D01*
X88738095Y-82238095D01*
X88547619Y-83190476D02*
X88500000Y-83238095D01*
X88452380Y-83333333D01*
X88452380Y-83571428D01*
X88500000Y-83666666D01*
X88547619Y-83714285D01*
X88642857Y-83761904D01*
X88738095Y-83761904D01*
X88880952Y-83714285D01*
X89452380Y-83142857D01*
X89452380Y-83761904D01*
X91352380Y-78635714D02*
X91352380Y-78064285D01*
X91352380Y-78350000D02*
X90352380Y-78350000D01*
X90495238Y-78254761D01*
X90590476Y-78159523D01*
X90638095Y-78064285D01*
%TO.C,D11*%
X74452380Y-81285714D02*
X73452380Y-81285714D01*
X73452380Y-81523809D01*
X73500000Y-81666666D01*
X73595238Y-81761904D01*
X73690476Y-81809523D01*
X73880952Y-81857142D01*
X74023809Y-81857142D01*
X74214285Y-81809523D01*
X74309523Y-81761904D01*
X74404761Y-81666666D01*
X74452380Y-81523809D01*
X74452380Y-81285714D01*
X74452380Y-82809523D02*
X74452380Y-82238095D01*
X74452380Y-82523809D02*
X73452380Y-82523809D01*
X73595238Y-82428571D01*
X73690476Y-82333333D01*
X73738095Y-82238095D01*
X74452380Y-83761904D02*
X74452380Y-83190476D01*
X74452380Y-83476190D02*
X73452380Y-83476190D01*
X73595238Y-83380952D01*
X73690476Y-83285714D01*
X73738095Y-83190476D01*
X76352380Y-78635714D02*
X76352380Y-78064285D01*
X76352380Y-78350000D02*
X75352380Y-78350000D01*
X75495238Y-78254761D01*
X75590476Y-78159523D01*
X75638095Y-78064285D01*
%TO.C,SW2*%
X33654761Y-81166666D02*
X33702380Y-81309523D01*
X33702380Y-81547619D01*
X33654761Y-81642857D01*
X33607142Y-81690476D01*
X33511904Y-81738095D01*
X33416666Y-81738095D01*
X33321428Y-81690476D01*
X33273809Y-81642857D01*
X33226190Y-81547619D01*
X33178571Y-81357142D01*
X33130952Y-81261904D01*
X33083333Y-81214285D01*
X32988095Y-81166666D01*
X32892857Y-81166666D01*
X32797619Y-81214285D01*
X32750000Y-81261904D01*
X32702380Y-81357142D01*
X32702380Y-81595238D01*
X32750000Y-81738095D01*
X32702380Y-82071428D02*
X33702380Y-82309523D01*
X32988095Y-82500000D01*
X33702380Y-82690476D01*
X32702380Y-82928571D01*
X32797619Y-83261904D02*
X32750000Y-83309523D01*
X32702380Y-83404761D01*
X32702380Y-83642857D01*
X32750000Y-83738095D01*
X32797619Y-83785714D01*
X32892857Y-83833333D01*
X32988095Y-83833333D01*
X33130952Y-83785714D01*
X33702380Y-83214285D01*
X33702380Y-83833333D01*
%TO.C,DS1*%
X93214285Y-59452380D02*
X93214285Y-58452380D01*
X92976190Y-58452380D01*
X92833333Y-58500000D01*
X92738095Y-58595238D01*
X92690476Y-58690476D01*
X92642857Y-58880952D01*
X92642857Y-59023809D01*
X92690476Y-59214285D01*
X92738095Y-59309523D01*
X92833333Y-59404761D01*
X92976190Y-59452380D01*
X93214285Y-59452380D01*
X92261904Y-59404761D02*
X92119047Y-59452380D01*
X91880952Y-59452380D01*
X91785714Y-59404761D01*
X91738095Y-59357142D01*
X91690476Y-59261904D01*
X91690476Y-59166666D01*
X91738095Y-59071428D01*
X91785714Y-59023809D01*
X91880952Y-58976190D01*
X92071428Y-58928571D01*
X92166666Y-58880952D01*
X92214285Y-58833333D01*
X92261904Y-58738095D01*
X92261904Y-58642857D01*
X92214285Y-58547619D01*
X92166666Y-58500000D01*
X92071428Y-58452380D01*
X91833333Y-58452380D01*
X91690476Y-58500000D01*
X90738095Y-59452380D02*
X91309523Y-59452380D01*
X91023809Y-59452380D02*
X91023809Y-58452380D01*
X91119047Y-58595238D01*
X91214285Y-58690476D01*
X91309523Y-58738095D01*
%TO.C,J9*%
X25333333Y-76822380D02*
X25333333Y-77536666D01*
X25380952Y-77679523D01*
X25476190Y-77774761D01*
X25619047Y-77822380D01*
X25714285Y-77822380D01*
X24809523Y-77822380D02*
X24619047Y-77822380D01*
X24523809Y-77774761D01*
X24476190Y-77727142D01*
X24380952Y-77584285D01*
X24333333Y-77393809D01*
X24333333Y-77012857D01*
X24380952Y-76917619D01*
X24428571Y-76870000D01*
X24523809Y-76822380D01*
X24714285Y-76822380D01*
X24809523Y-76870000D01*
X24857142Y-76917619D01*
X24904761Y-77012857D01*
X24904761Y-77250952D01*
X24857142Y-77346190D01*
X24809523Y-77393809D01*
X24714285Y-77441428D01*
X24523809Y-77441428D01*
X24428571Y-77393809D01*
X24380952Y-77346190D01*
X24333333Y-77250952D01*
%TO.C,J7*%
X23333333Y-41962380D02*
X23333333Y-42676666D01*
X23380952Y-42819523D01*
X23476190Y-42914761D01*
X23619047Y-42962380D01*
X23714285Y-42962380D01*
X22952380Y-41962380D02*
X22285714Y-41962380D01*
X22714285Y-42962380D01*
%TO.C,SW1*%
X46154761Y-81166666D02*
X46202380Y-81309523D01*
X46202380Y-81547619D01*
X46154761Y-81642857D01*
X46107142Y-81690476D01*
X46011904Y-81738095D01*
X45916666Y-81738095D01*
X45821428Y-81690476D01*
X45773809Y-81642857D01*
X45726190Y-81547619D01*
X45678571Y-81357142D01*
X45630952Y-81261904D01*
X45583333Y-81214285D01*
X45488095Y-81166666D01*
X45392857Y-81166666D01*
X45297619Y-81214285D01*
X45250000Y-81261904D01*
X45202380Y-81357142D01*
X45202380Y-81595238D01*
X45250000Y-81738095D01*
X45202380Y-82071428D02*
X46202380Y-82309523D01*
X45488095Y-82500000D01*
X46202380Y-82690476D01*
X45202380Y-82928571D01*
X46202380Y-83833333D02*
X46202380Y-83261904D01*
X46202380Y-83547619D02*
X45202380Y-83547619D01*
X45345238Y-83452380D01*
X45440476Y-83357142D01*
X45488095Y-83261904D01*
%TO.C,J8*%
X27333333Y-41962380D02*
X27333333Y-42676666D01*
X27380952Y-42819523D01*
X27476190Y-42914761D01*
X27619047Y-42962380D01*
X27714285Y-42962380D01*
X26714285Y-42390952D02*
X26809523Y-42343333D01*
X26857142Y-42295714D01*
X26904761Y-42200476D01*
X26904761Y-42152857D01*
X26857142Y-42057619D01*
X26809523Y-42010000D01*
X26714285Y-41962380D01*
X26523809Y-41962380D01*
X26428571Y-42010000D01*
X26380952Y-42057619D01*
X26333333Y-42152857D01*
X26333333Y-42200476D01*
X26380952Y-42295714D01*
X26428571Y-42343333D01*
X26523809Y-42390952D01*
X26714285Y-42390952D01*
X26809523Y-42438571D01*
X26857142Y-42486190D01*
X26904761Y-42581428D01*
X26904761Y-42771904D01*
X26857142Y-42867142D01*
X26809523Y-42914761D01*
X26714285Y-42962380D01*
X26523809Y-42962380D01*
X26428571Y-42914761D01*
X26380952Y-42867142D01*
X26333333Y-42771904D01*
X26333333Y-42581428D01*
X26380952Y-42486190D01*
X26428571Y-42438571D01*
X26523809Y-42390952D01*
%TO.C,J5*%
X25333333Y-86822380D02*
X25333333Y-87536666D01*
X25380952Y-87679523D01*
X25476190Y-87774761D01*
X25619047Y-87822380D01*
X25714285Y-87822380D01*
X24380952Y-86822380D02*
X24857142Y-86822380D01*
X24904761Y-87298571D01*
X24857142Y-87250952D01*
X24761904Y-87203333D01*
X24523809Y-87203333D01*
X24428571Y-87250952D01*
X24380952Y-87298571D01*
X24333333Y-87393809D01*
X24333333Y-87631904D01*
X24380952Y-87727142D01*
X24428571Y-87774761D01*
X24523809Y-87822380D01*
X24761904Y-87822380D01*
X24857142Y-87774761D01*
X24904761Y-87727142D01*
%TO.C,D9*%
X36952380Y-29261904D02*
X35952380Y-29261904D01*
X35952380Y-29500000D01*
X36000000Y-29642857D01*
X36095238Y-29738095D01*
X36190476Y-29785714D01*
X36380952Y-29833333D01*
X36523809Y-29833333D01*
X36714285Y-29785714D01*
X36809523Y-29738095D01*
X36904761Y-29642857D01*
X36952380Y-29500000D01*
X36952380Y-29261904D01*
X36952380Y-30309523D02*
X36952380Y-30500000D01*
X36904761Y-30595238D01*
X36857142Y-30642857D01*
X36714285Y-30738095D01*
X36523809Y-30785714D01*
X36142857Y-30785714D01*
X36047619Y-30738095D01*
X36000000Y-30690476D01*
X35952380Y-30595238D01*
X35952380Y-30404761D01*
X36000000Y-30309523D01*
X36047619Y-30261904D01*
X36142857Y-30214285D01*
X36380952Y-30214285D01*
X36476190Y-30261904D01*
X36523809Y-30309523D01*
X36571428Y-30404761D01*
X36571428Y-30595238D01*
X36523809Y-30690476D01*
X36476190Y-30738095D01*
X36380952Y-30785714D01*
X38852380Y-26135714D02*
X38852380Y-25564285D01*
X38852380Y-25850000D02*
X37852380Y-25850000D01*
X37995238Y-25754761D01*
X38090476Y-25659523D01*
X38138095Y-25564285D01*
%TO.C,D10*%
X61952380Y-28785714D02*
X60952380Y-28785714D01*
X60952380Y-29023809D01*
X61000000Y-29166666D01*
X61095238Y-29261904D01*
X61190476Y-29309523D01*
X61380952Y-29357142D01*
X61523809Y-29357142D01*
X61714285Y-29309523D01*
X61809523Y-29261904D01*
X61904761Y-29166666D01*
X61952380Y-29023809D01*
X61952380Y-28785714D01*
X61952380Y-30309523D02*
X61952380Y-29738095D01*
X61952380Y-30023809D02*
X60952380Y-30023809D01*
X61095238Y-29928571D01*
X61190476Y-29833333D01*
X61238095Y-29738095D01*
X60952380Y-30928571D02*
X60952380Y-31023809D01*
X61000000Y-31119047D01*
X61047619Y-31166666D01*
X61142857Y-31214285D01*
X61333333Y-31261904D01*
X61571428Y-31261904D01*
X61761904Y-31214285D01*
X61857142Y-31166666D01*
X61904761Y-31119047D01*
X61952380Y-31023809D01*
X61952380Y-30928571D01*
X61904761Y-30833333D01*
X61857142Y-30785714D01*
X61761904Y-30738095D01*
X61571428Y-30690476D01*
X61333333Y-30690476D01*
X61142857Y-30738095D01*
X61047619Y-30785714D01*
X61000000Y-30833333D01*
X60952380Y-30928571D01*
X63852380Y-26135714D02*
X63852380Y-25564285D01*
X63852380Y-25850000D02*
X62852380Y-25850000D01*
X62995238Y-25754761D01*
X63090476Y-25659523D01*
X63138095Y-25564285D01*
%TO.C,JP1*%
X51833333Y-8652380D02*
X51833333Y-9366666D01*
X51880952Y-9509523D01*
X51976190Y-9604761D01*
X52119047Y-9652380D01*
X52214285Y-9652380D01*
X51357142Y-9652380D02*
X51357142Y-8652380D01*
X50976190Y-8652380D01*
X50880952Y-8700000D01*
X50833333Y-8747619D01*
X50785714Y-8842857D01*
X50785714Y-8985714D01*
X50833333Y-9080952D01*
X50880952Y-9128571D01*
X50976190Y-9176190D01*
X51357142Y-9176190D01*
X49833333Y-9652380D02*
X50404761Y-9652380D01*
X50119047Y-9652380D02*
X50119047Y-8652380D01*
X50214285Y-8795238D01*
X50309523Y-8890476D01*
X50404761Y-8938095D01*
%TO.C,JP2*%
X52183333Y-12652380D02*
X52183333Y-13366666D01*
X52230952Y-13509523D01*
X52326190Y-13604761D01*
X52469047Y-13652380D01*
X52564285Y-13652380D01*
X51707142Y-13652380D02*
X51707142Y-12652380D01*
X51326190Y-12652380D01*
X51230952Y-12700000D01*
X51183333Y-12747619D01*
X51135714Y-12842857D01*
X51135714Y-12985714D01*
X51183333Y-13080952D01*
X51230952Y-13128571D01*
X51326190Y-13176190D01*
X51707142Y-13176190D01*
X50754761Y-12747619D02*
X50707142Y-12700000D01*
X50611904Y-12652380D01*
X50373809Y-12652380D01*
X50278571Y-12700000D01*
X50230952Y-12747619D01*
X50183333Y-12842857D01*
X50183333Y-12938095D01*
X50230952Y-13080952D01*
X50802380Y-13652380D01*
X50183333Y-13652380D01*
%TO.C,JP3*%
X70533333Y-7652380D02*
X70533333Y-8366666D01*
X70580952Y-8509523D01*
X70676190Y-8604761D01*
X70819047Y-8652380D01*
X70914285Y-8652380D01*
X70057142Y-8652380D02*
X70057142Y-7652380D01*
X69676190Y-7652380D01*
X69580952Y-7700000D01*
X69533333Y-7747619D01*
X69485714Y-7842857D01*
X69485714Y-7985714D01*
X69533333Y-8080952D01*
X69580952Y-8128571D01*
X69676190Y-8176190D01*
X70057142Y-8176190D01*
X69152380Y-7652380D02*
X68533333Y-7652380D01*
X68866666Y-8033333D01*
X68723809Y-8033333D01*
X68628571Y-8080952D01*
X68580952Y-8128571D01*
X68533333Y-8223809D01*
X68533333Y-8461904D01*
X68580952Y-8557142D01*
X68628571Y-8604761D01*
X68723809Y-8652380D01*
X69009523Y-8652380D01*
X69104761Y-8604761D01*
X69152380Y-8557142D01*
%TO.C,RV1*%
X112112380Y-33394761D02*
X111636190Y-33061428D01*
X112112380Y-32823333D02*
X111112380Y-32823333D01*
X111112380Y-33204285D01*
X111160000Y-33299523D01*
X111207619Y-33347142D01*
X111302857Y-33394761D01*
X111445714Y-33394761D01*
X111540952Y-33347142D01*
X111588571Y-33299523D01*
X111636190Y-33204285D01*
X111636190Y-32823333D01*
X111112380Y-33680476D02*
X112112380Y-34013809D01*
X111112380Y-34347142D01*
X112112380Y-35204285D02*
X112112380Y-34632857D01*
X112112380Y-34918571D02*
X111112380Y-34918571D01*
X111255238Y-34823333D01*
X111350476Y-34728095D01*
X111398095Y-34632857D01*
%TO.C,JP4*%
X62833333Y-8652380D02*
X62833333Y-9366666D01*
X62880952Y-9509523D01*
X62976190Y-9604761D01*
X63119047Y-9652380D01*
X63214285Y-9652380D01*
X62357142Y-9652380D02*
X62357142Y-8652380D01*
X61976190Y-8652380D01*
X61880952Y-8700000D01*
X61833333Y-8747619D01*
X61785714Y-8842857D01*
X61785714Y-8985714D01*
X61833333Y-9080952D01*
X61880952Y-9128571D01*
X61976190Y-9176190D01*
X62357142Y-9176190D01*
X60928571Y-8985714D02*
X60928571Y-9652380D01*
X61166666Y-8604761D02*
X61404761Y-9319047D01*
X60785714Y-9319047D01*
D12*
%TO.C,J10*%
X26330000Y-38910000D02*
X23670000Y-38910000D01*
X26330000Y-33770000D02*
X26330000Y-38910000D01*
X26330000Y-32500000D02*
X26330000Y-31170000D01*
X23670000Y-33770000D02*
X23670000Y-38910000D01*
X26330000Y-31170000D02*
X25000000Y-31170000D01*
X26330000Y-33770000D02*
X23670000Y-33770000D01*
%TO.C,JP9*%
X92200000Y-81100000D02*
G75*
G03*
X91500000Y-81800000I0J-700000D01*
G01*
X91500000Y-83200000D02*
G75*
G03*
X92200000Y-83900000I699999J-1D01*
G01*
X92800000Y-83900000D02*
G75*
G03*
X93500000Y-83200000I1J699999D01*
G01*
X93500000Y-81800000D02*
G75*
G03*
X92800000Y-81100000I-700000J0D01*
G01*
X92200000Y-83900000D02*
X92800000Y-83900000D01*
X92800000Y-81100000D02*
X92200000Y-81100000D01*
X91500000Y-81800000D02*
X91500000Y-83200000D01*
X93500000Y-83200000D02*
X93500000Y-81800000D01*
%TO.C,JP8*%
X78500000Y-83200000D02*
X78500000Y-81800000D01*
X76500000Y-81800000D02*
X76500000Y-83200000D01*
X77800000Y-81100000D02*
X77200000Y-81100000D01*
X77200000Y-83900000D02*
X77800000Y-83900000D01*
X78500000Y-81800000D02*
G75*
G03*
X77800000Y-81100000I-700000J0D01*
G01*
X77800000Y-83900000D02*
G75*
G03*
X78500000Y-83200000I1J699999D01*
G01*
X76500000Y-83200000D02*
G75*
G03*
X77200000Y-83900000I699999J-1D01*
G01*
X77200000Y-81100000D02*
G75*
G03*
X76500000Y-81800000I0J-700000D01*
G01*
%TO.C,JP7*%
X66000000Y-30700000D02*
X66000000Y-29300000D01*
X64000000Y-29300000D02*
X64000000Y-30700000D01*
X65300000Y-28600000D02*
X64700000Y-28600000D01*
X64700000Y-31400000D02*
X65300000Y-31400000D01*
X66000000Y-29300000D02*
G75*
G03*
X65300000Y-28600000I-700000J0D01*
G01*
X65300000Y-31400000D02*
G75*
G03*
X66000000Y-30700000I1J699999D01*
G01*
X64000000Y-30700000D02*
G75*
G03*
X64700000Y-31400000I699999J-1D01*
G01*
X64700000Y-28600000D02*
G75*
G03*
X64000000Y-29300000I0J-700000D01*
G01*
%TO.C,JP6*%
X41000000Y-30700000D02*
X41000000Y-29300000D01*
X39000000Y-29300000D02*
X39000000Y-30700000D01*
X40300000Y-28600000D02*
X39700000Y-28600000D01*
X39700000Y-31400000D02*
X40300000Y-31400000D01*
X41000000Y-29300000D02*
G75*
G03*
X40300000Y-28600000I-700000J0D01*
G01*
X40300000Y-31400000D02*
G75*
G03*
X41000000Y-30700000I1J699999D01*
G01*
X39000000Y-30700000D02*
G75*
G03*
X39700000Y-31400000I699999J-1D01*
G01*
X39700000Y-28600000D02*
G75*
G03*
X39000000Y-29300000I0J-700000D01*
G01*
%TO.C,D12*%
X89750000Y-78850000D02*
X89750000Y-86150000D01*
X95250000Y-78850000D02*
X95250000Y-86150000D01*
X95250000Y-86150000D02*
X94100000Y-86150000D01*
%TO.C,D11*%
X74750000Y-78850000D02*
X74750000Y-86150000D01*
X80250000Y-78850000D02*
X80250000Y-86150000D01*
X80250000Y-86150000D02*
X79100000Y-86150000D01*
%TO.C,SW2*%
X38250000Y-86000000D02*
X36750000Y-86000000D01*
X34250000Y-84750000D02*
X34250000Y-80250000D01*
X36750000Y-79000000D02*
X38250000Y-79000000D01*
X40750000Y-80250000D02*
X40750000Y-84750000D01*
%TO.C,DS1*%
X38300000Y-50142500D02*
G75*
G03*
X37800000Y-50642500I0J-500000D01*
G01*
X101799340Y-65142200D02*
G75*
G03*
X102299720Y-64641820I0J500380D01*
G01*
X37798900Y-64641820D02*
G75*
G03*
X38299340Y-65142200I500400J20D01*
G01*
X102299720Y-50641340D02*
G75*
G03*
X101799340Y-50140960I-500380J0D01*
G01*
X34000000Y-70142500D02*
X107000000Y-70142500D01*
X110130000Y-39502500D02*
X109340000Y-39502500D01*
X110140000Y-39502500D02*
X110140000Y-75782500D01*
X37800000Y-50642500D02*
X37800000Y-64642500D01*
X102299720Y-64641820D02*
X102299720Y-50642500D01*
X101800000Y-50142500D02*
X38300000Y-50142500D01*
X29860000Y-39502500D02*
X109340000Y-39502500D01*
X38299340Y-65142500D02*
X101800000Y-65142500D01*
X107000000Y-45142500D02*
X34000000Y-45142500D01*
X103500000Y-39142500D02*
X100500000Y-39142500D01*
X107000000Y-70142500D02*
X107000000Y-45142500D01*
X29860000Y-75782500D02*
X29860000Y-39502500D01*
X110140000Y-75782500D02*
X29860000Y-75782500D01*
X34000000Y-45142500D02*
X34000000Y-70142500D01*
%TO.C,U11*%
X84120000Y-37625000D02*
X89880000Y-37625000D01*
X84120000Y-25365000D02*
X84120000Y-37625000D01*
X89870000Y-25365000D02*
X84130000Y-25365000D01*
X90160000Y-25085000D02*
X88550000Y-25085000D01*
X89880000Y-37625000D02*
X89880000Y-25375000D01*
X90160000Y-25085000D02*
X90160000Y-27085000D01*
%TO.C,J9*%
X23670000Y-75040000D02*
X23670000Y-76370000D01*
X23670000Y-73770000D02*
X23670000Y-68630000D01*
X26330000Y-73770000D02*
X26330000Y-68630000D01*
X23670000Y-76370000D02*
X25000000Y-76370000D01*
X23670000Y-73770000D02*
X26330000Y-73770000D01*
X23670000Y-68630000D02*
X26330000Y-68630000D01*
%TO.C,J7*%
X24330000Y-46110000D02*
X21670000Y-46110000D01*
X21670000Y-46110000D02*
X21670000Y-63950000D01*
X24330000Y-44840000D02*
X24330000Y-43510000D01*
X24330000Y-46110000D02*
X24330000Y-63950000D01*
X24330000Y-43510000D02*
X23000000Y-43510000D01*
X24330000Y-63950000D02*
X21670000Y-63950000D01*
%TO.C,J11*%
X96670000Y-32255000D02*
X96670000Y-27115000D01*
X96670000Y-27115000D02*
X99330000Y-27115000D01*
X96670000Y-33525000D02*
X96670000Y-34855000D01*
X96670000Y-34855000D02*
X98000000Y-34855000D01*
X96670000Y-32255000D02*
X99330000Y-32255000D01*
X99330000Y-32255000D02*
X99330000Y-27115000D01*
%TO.C,SW1*%
X49250000Y-79000000D02*
X50750000Y-79000000D01*
X50750000Y-86000000D02*
X49250000Y-86000000D01*
X46750000Y-84750000D02*
X46750000Y-80250000D01*
X53250000Y-80250000D02*
X53250000Y-84750000D01*
%TO.C,J8*%
X25670000Y-46110000D02*
X25670000Y-63950000D01*
X28330000Y-43510000D02*
X27000000Y-43510000D01*
X28330000Y-63950000D02*
X25670000Y-63950000D01*
X28330000Y-44840000D02*
X28330000Y-43510000D01*
X28330000Y-46110000D02*
X25670000Y-46110000D01*
X28330000Y-46110000D02*
X28330000Y-63950000D01*
%TO.C,J5*%
X23670000Y-83770000D02*
X26330000Y-83770000D01*
X26330000Y-83770000D02*
X26330000Y-78630000D01*
X23670000Y-85040000D02*
X23670000Y-86370000D01*
X23670000Y-78630000D02*
X26330000Y-78630000D01*
X23670000Y-86370000D02*
X25000000Y-86370000D01*
X23670000Y-83770000D02*
X23670000Y-78630000D01*
%TO.C,D9*%
X42750000Y-33650000D02*
X41600000Y-33650000D01*
X42750000Y-26350000D02*
X42750000Y-33650000D01*
X37250000Y-26350000D02*
X37250000Y-33650000D01*
%TO.C,D10*%
X67750000Y-33650000D02*
X66600000Y-33650000D01*
X67750000Y-26350000D02*
X67750000Y-33650000D01*
X62250000Y-26350000D02*
X62250000Y-33650000D01*
%TO.C,JP1*%
X49600000Y-10700000D02*
X49600000Y-11300000D01*
X52400000Y-11300000D02*
X52400000Y-10700000D01*
X51700000Y-10000000D02*
X50300000Y-10000000D01*
X50300000Y-12000000D02*
X51700000Y-12000000D01*
X50300000Y-10000000D02*
G75*
G03*
X49600000Y-10700000I0J-700000D01*
G01*
X52400000Y-10700000D02*
G75*
G03*
X51700000Y-10000000I-699999J1D01*
G01*
X49600000Y-11300000D02*
G75*
G03*
X50300000Y-12000000I700000J0D01*
G01*
X51700000Y-12000000D02*
G75*
G03*
X52400000Y-11300000I1J699999D01*
G01*
%TO.C,JP2*%
X52750000Y-15300000D02*
X52750000Y-14700000D01*
X52050000Y-14000000D02*
X50650000Y-14000000D01*
X49950000Y-14700000D02*
X49950000Y-15300000D01*
X50650000Y-16000000D02*
X52050000Y-16000000D01*
X49950000Y-15300000D02*
G75*
G03*
X50650000Y-16000000I700000J0D01*
G01*
X52750000Y-14700000D02*
G75*
G03*
X52050000Y-14000000I-699999J1D01*
G01*
X52050000Y-16000000D02*
G75*
G03*
X52750000Y-15300000I1J699999D01*
G01*
X50650000Y-14000000D02*
G75*
G03*
X49950000Y-14700000I0J-700000D01*
G01*
%TO.C,JP3*%
X70400000Y-9000000D02*
X69000000Y-9000000D01*
X69000000Y-11000000D02*
X70400000Y-11000000D01*
X68300000Y-9700000D02*
X68300000Y-10300000D01*
X71100000Y-10300000D02*
X71100000Y-9700000D01*
X71100000Y-9700000D02*
G75*
G03*
X70400000Y-9000000I-699999J1D01*
G01*
X70400000Y-11000000D02*
G75*
G03*
X71100000Y-10300000I1J699999D01*
G01*
X68300000Y-10300000D02*
G75*
G03*
X69000000Y-11000000I700000J0D01*
G01*
X69000000Y-9000000D02*
G75*
G03*
X68300000Y-9700000I0J-700000D01*
G01*
%TO.C,RV1*%
X105460000Y-38875000D02*
X105460000Y-29105000D01*
X110530000Y-38875000D02*
X105460000Y-38875000D01*
X110530000Y-38875000D02*
X110530000Y-29105000D01*
X110530000Y-29105000D02*
X105460000Y-29105000D01*
%TO.C,JP4*%
X62700000Y-10000000D02*
X61300000Y-10000000D01*
X60600000Y-10700000D02*
X60600000Y-11300000D01*
X61300000Y-12000000D02*
X62700000Y-12000000D01*
X63400000Y-11300000D02*
X63400000Y-10700000D01*
X63400000Y-10700000D02*
G75*
G03*
X62700000Y-10000000I-699999J1D01*
G01*
X61300000Y-10000000D02*
G75*
G03*
X60600000Y-10700000I0J-700000D01*
G01*
X60600000Y-11300000D02*
G75*
G03*
X61300000Y-12000000I700000J0D01*
G01*
X62700000Y-12000000D02*
G75*
G03*
X63400000Y-11300000I1J699999D01*
G01*
%TD*%
%LPC*%
D11*
%TO.C,U9*%
X115916641Y-54161191D02*
X115916641Y-53685001D01*
X116202355Y-54256429D02*
X115202355Y-53923096D01*
X116202355Y-53589763D01*
X116202355Y-53256429D02*
X115202355Y-53256429D01*
X116202355Y-52685001D01*
X115202355Y-52685001D01*
X115202355Y-52351667D02*
X115202355Y-51780239D01*
X116202355Y-52065953D02*
X115202355Y-52065953D01*
X115678546Y-51446905D02*
X115678546Y-51113572D01*
X116202355Y-50970715D02*
X116202355Y-51446905D01*
X115202355Y-51446905D01*
X115202355Y-50970715D01*
X116202355Y-50542143D02*
X115202355Y-50542143D01*
X116202355Y-49970715D01*
X115202355Y-49970715D01*
X116202355Y-49494524D02*
X115202355Y-49494524D01*
X116202355Y-48923096D01*
X115202355Y-48923096D01*
X115916641Y-48494524D02*
X115916641Y-48018334D01*
X116202355Y-48589763D02*
X115202355Y-48256429D01*
X116202355Y-47923096D01*
%TD*%
D13*
%TO.C,J6*%
X128650000Y-77550000D03*
D14*
X128650000Y-80090000D03*
X128650000Y-82630000D03*
X128650000Y-85170000D03*
X128650000Y-87710000D03*
X128650000Y-90250000D03*
%TD*%
D13*
%TO.C,J10*%
X25000000Y-32500000D03*
D14*
X25000000Y-35040000D03*
X25000000Y-37580000D03*
%TD*%
D15*
%TO.C,JP9*%
X92500000Y-81850000D03*
D16*
X92500000Y-83150000D03*
%TD*%
%TO.C,JP8*%
X77500000Y-83150000D03*
D15*
X77500000Y-81850000D03*
%TD*%
D16*
%TO.C,JP7*%
X65000000Y-30650000D03*
D15*
X65000000Y-29350000D03*
%TD*%
D16*
%TO.C,JP6*%
X40000000Y-30650000D03*
D15*
X40000000Y-29350000D03*
%TD*%
D17*
%TO.C,D12*%
X90850000Y-80050000D03*
X94150000Y-80050000D03*
X94150000Y-84950000D03*
X90850000Y-84950000D03*
%TD*%
%TO.C,D11*%
X75850000Y-80050000D03*
X79150000Y-80050000D03*
X79150000Y-84950000D03*
X75850000Y-84950000D03*
%TD*%
D18*
%TO.C,SW2*%
X35250000Y-85750000D03*
X35250000Y-79250000D03*
X39750000Y-85750000D03*
X39750000Y-79250000D03*
%TD*%
D19*
%TO.C,DS1*%
X63900000Y-42142500D03*
X66440000Y-42142500D03*
X68980000Y-42142500D03*
X71520000Y-42142500D03*
X74060000Y-42142500D03*
X76600000Y-42142500D03*
X79140000Y-42142500D03*
X81680000Y-42142500D03*
X84220000Y-42142500D03*
X86760000Y-42142500D03*
X89300000Y-42142500D03*
X91840000Y-42142500D03*
X94380000Y-42142500D03*
X96920000Y-42142500D03*
X99460000Y-42142500D03*
D20*
X102000000Y-42142500D03*
D21*
X32500000Y-42142500D03*
X107499100Y-73143200D03*
X107499100Y-42142500D03*
X32500520Y-73143200D03*
%TD*%
D22*
%TO.C,U11*%
X87000000Y-27685000D03*
D23*
X87000000Y-30225000D03*
X87000000Y-32765000D03*
X87000000Y-35305000D03*
%TD*%
D24*
%TO.C,H4*%
X25000000Y-95000000D03*
%TD*%
%TO.C,H3*%
X25000000Y-25000000D03*
%TD*%
%TO.C,H2*%
X115400000Y-25000000D03*
%TD*%
%TO.C,H1*%
X115000000Y-95000000D03*
%TD*%
D25*
%TO.C,U1*%
X100299975Y-94649860D03*
X104700025Y-94649860D03*
%TD*%
D13*
%TO.C,J9*%
X25000000Y-75040000D03*
D14*
X25000000Y-72500000D03*
X25000000Y-69960000D03*
%TD*%
D13*
%TO.C,J7*%
X23000000Y-44840000D03*
D14*
X23000000Y-47380000D03*
X23000000Y-49920000D03*
X23000000Y-52460000D03*
X23000000Y-55000000D03*
X23000000Y-57540000D03*
X23000000Y-60080000D03*
X23000000Y-62620000D03*
%TD*%
D13*
%TO.C,J11*%
X98000000Y-33525000D03*
D14*
X98000000Y-30985000D03*
X98000000Y-28445000D03*
%TD*%
D26*
%TO.C,J2*%
X72415888Y-93650000D03*
X77415888Y-93650000D03*
%TD*%
D18*
%TO.C,SW1*%
X47750000Y-79250000D03*
X47750000Y-85750000D03*
X52250000Y-79250000D03*
X52250000Y-85750000D03*
%TD*%
D26*
%TO.C,J4*%
X57415888Y-93650000D03*
X52415888Y-93650000D03*
%TD*%
%TO.C,J3*%
X62415888Y-93650000D03*
X67415888Y-93650000D03*
%TD*%
D13*
%TO.C,J8*%
X27000000Y-44840000D03*
D14*
X27000000Y-47380000D03*
X27000000Y-49920000D03*
X27000000Y-52460000D03*
X27000000Y-55000000D03*
X27000000Y-57540000D03*
X27000000Y-60080000D03*
X27000000Y-62620000D03*
%TD*%
D26*
%TO.C,J1*%
X82415888Y-93650000D03*
X87415888Y-93650000D03*
%TD*%
D27*
%TO.C,U3*%
X47050000Y-55435000D03*
X47050000Y-57975000D03*
D28*
X47050000Y-60515000D03*
%TD*%
D13*
%TO.C,J5*%
X25000000Y-85040000D03*
D14*
X25000000Y-82500000D03*
X25000000Y-79960000D03*
%TD*%
D17*
%TO.C,D9*%
X38350000Y-32450000D03*
X41650000Y-32450000D03*
X41650000Y-27550000D03*
X38350000Y-27550000D03*
%TD*%
%TO.C,D10*%
X63350000Y-32450000D03*
X66650000Y-32450000D03*
X66650000Y-27550000D03*
X63350000Y-27550000D03*
%TD*%
D29*
%TO.C,JP1*%
X51650000Y-11000000D03*
D30*
X50350000Y-11000000D03*
%TD*%
D29*
%TO.C,JP2*%
X52000000Y-15000000D03*
D30*
X50700000Y-15000000D03*
%TD*%
D29*
%TO.C,JP3*%
X70350000Y-10000000D03*
D30*
X69050000Y-10000000D03*
%TD*%
D31*
%TO.C,RV1*%
X108000000Y-31450000D03*
X108000000Y-33990000D03*
X108000000Y-36530000D03*
%TD*%
D29*
%TO.C,JP4*%
X62650000Y-11000000D03*
D30*
X61350000Y-11000000D03*
%TD*%
M02*
