%TF.GenerationSoftware,KiCad,Pcbnew,(6.0.9)*%
%TF.CreationDate,2022-11-21T22:50:26+02:00*%
%TF.ProjectId,Elekit2.0,456c656b-6974-4322-9e30-2e6b69636164,rev?*%
%TF.SameCoordinates,Original*%
%TF.FileFunction,Soldermask,Bot*%
%TF.FilePolarity,Negative*%
%FSLAX46Y46*%
G04 Gerber Fmt 4.6, Leading zero omitted, Abs format (unit mm)*
G04 Created by KiCad (PCBNEW (6.0.9)) date 2022-11-21 22:50:26*
%MOMM*%
%LPD*%
G01*
G04 APERTURE LIST*
G04 Aperture macros list*
%AMFreePoly0*
4,1,20,0.000000,0.744959,0.073905,0.744508,0.209726,0.703889,0.328688,0.626782,0.421226,0.519385,0.479903,0.390333,0.500000,0.250000,0.500000,-0.250000,0.499851,-0.262216,0.476331,-0.402017,0.414519,-0.529596,0.319384,-0.634700,0.198574,-0.708877,0.061801,-0.746166,0.000000,-0.745033,0.000000,-0.750000,-0.500000,-0.750000,-0.500000,0.750000,0.000000,0.750000,0.000000,0.744959,
0.000000,0.744959,$1*%
%AMFreePoly1*
4,1,22,0.500000,-0.750000,0.000000,-0.750000,0.000000,-0.745033,-0.079941,-0.743568,-0.215256,-0.701293,-0.333266,-0.622738,-0.424486,-0.514219,-0.481581,-0.384460,-0.499164,-0.250000,-0.500000,-0.250000,-0.500000,0.250000,-0.499164,0.250000,-0.499963,0.256109,-0.478152,0.396186,-0.417904,0.524511,-0.324060,0.630769,-0.204165,0.706417,-0.067858,0.745374,0.000000,0.744959,0.000000,0.750000,
0.500000,0.750000,0.500000,-0.750000,0.500000,-0.750000,$1*%
G04 Aperture macros list end*
%ADD10C,0.150000*%
%ADD11R,1.700000X1.700000*%
%ADD12O,1.700000X1.700000*%
%ADD13FreePoly0,90.000000*%
%ADD14FreePoly1,90.000000*%
%ADD15R,0.900000X1.500000*%
%ADD16C,2.000000*%
%ADD17O,1.800000X2.600000*%
%ADD18R,1.800000X2.600000*%
%ADD19C,3.000000*%
%ADD20R,1.500000X1.500000*%
%ADD21C,1.500000*%
%ADD22C,3.200000*%
%ADD23C,0.900025*%
%ADD24C,2.200000*%
%ADD25O,2.000000X1.905000*%
%ADD26R,2.000000X1.905000*%
%ADD27FreePoly1,180.000000*%
%ADD28FreePoly0,180.000000*%
%ADD29C,1.440000*%
G04 APERTURE END LIST*
D10*
%TO.C,U9*%
X115916641Y-54161191D02*
X115916641Y-53685001D01*
X116202355Y-54256429D02*
X115202355Y-53923096D01*
X116202355Y-53589763D01*
X116202355Y-53256429D02*
X115202355Y-53256429D01*
X116202355Y-52685001D01*
X115202355Y-52685001D01*
X115202355Y-52351667D02*
X115202355Y-51780239D01*
X116202355Y-52065953D02*
X115202355Y-52065953D01*
X115678546Y-51446905D02*
X115678546Y-51113572D01*
X116202355Y-50970715D02*
X116202355Y-51446905D01*
X115202355Y-51446905D01*
X115202355Y-50970715D01*
X116202355Y-50542143D02*
X115202355Y-50542143D01*
X116202355Y-49970715D01*
X115202355Y-49970715D01*
X116202355Y-49494524D02*
X115202355Y-49494524D01*
X116202355Y-48923096D01*
X115202355Y-48923096D01*
X115916641Y-48494524D02*
X115916641Y-48018334D01*
X116202355Y-48589763D02*
X115202355Y-48256429D01*
X116202355Y-47923096D01*
%TD*%
D11*
%TO.C,J6*%
X128650000Y-77550000D03*
D12*
X128650000Y-80090000D03*
X128650000Y-82630000D03*
X128650000Y-85170000D03*
X128650000Y-87710000D03*
X128650000Y-90250000D03*
%TD*%
D11*
%TO.C,J10*%
X25000000Y-32500000D03*
D12*
X25000000Y-35040000D03*
X25000000Y-37580000D03*
%TD*%
D13*
%TO.C,JP9*%
X92500000Y-81850000D03*
D14*
X92500000Y-83150000D03*
%TD*%
%TO.C,JP8*%
X77500000Y-83150000D03*
D13*
X77500000Y-81850000D03*
%TD*%
D14*
%TO.C,JP7*%
X65000000Y-30650000D03*
D13*
X65000000Y-29350000D03*
%TD*%
D14*
%TO.C,JP6*%
X40000000Y-30650000D03*
D13*
X40000000Y-29350000D03*
%TD*%
D15*
%TO.C,D12*%
X90850000Y-80050000D03*
X94150000Y-80050000D03*
X94150000Y-84950000D03*
X90850000Y-84950000D03*
%TD*%
%TO.C,D11*%
X75850000Y-80050000D03*
X79150000Y-80050000D03*
X79150000Y-84950000D03*
X75850000Y-84950000D03*
%TD*%
D16*
%TO.C,SW2*%
X35250000Y-85750000D03*
X35250000Y-79250000D03*
X39750000Y-85750000D03*
X39750000Y-79250000D03*
%TD*%
D17*
%TO.C,DS1*%
X63900000Y-42142500D03*
X66440000Y-42142500D03*
X68980000Y-42142500D03*
X71520000Y-42142500D03*
X74060000Y-42142500D03*
X76600000Y-42142500D03*
X79140000Y-42142500D03*
X81680000Y-42142500D03*
X84220000Y-42142500D03*
X86760000Y-42142500D03*
X89300000Y-42142500D03*
X91840000Y-42142500D03*
X94380000Y-42142500D03*
X96920000Y-42142500D03*
X99460000Y-42142500D03*
D18*
X102000000Y-42142500D03*
D19*
X32500000Y-42142500D03*
X107499100Y-73143200D03*
X107499100Y-42142500D03*
X32500520Y-73143200D03*
%TD*%
D20*
%TO.C,U11*%
X87000000Y-27685000D03*
D21*
X87000000Y-30225000D03*
X87000000Y-32765000D03*
X87000000Y-35305000D03*
%TD*%
D22*
%TO.C,H4*%
X25000000Y-95000000D03*
%TD*%
%TO.C,H3*%
X25000000Y-25000000D03*
%TD*%
%TO.C,H2*%
X115400000Y-25000000D03*
%TD*%
%TO.C,H1*%
X115000000Y-95000000D03*
%TD*%
D23*
%TO.C,U1*%
X100299975Y-94649860D03*
X104700025Y-94649860D03*
%TD*%
D11*
%TO.C,J9*%
X25000000Y-75040000D03*
D12*
X25000000Y-72500000D03*
X25000000Y-69960000D03*
%TD*%
D11*
%TO.C,J7*%
X23000000Y-44840000D03*
D12*
X23000000Y-47380000D03*
X23000000Y-49920000D03*
X23000000Y-52460000D03*
X23000000Y-55000000D03*
X23000000Y-57540000D03*
X23000000Y-60080000D03*
X23000000Y-62620000D03*
%TD*%
D11*
%TO.C,J11*%
X98000000Y-33525000D03*
D12*
X98000000Y-30985000D03*
X98000000Y-28445000D03*
%TD*%
D24*
%TO.C,J2*%
X72415888Y-93650000D03*
X77415888Y-93650000D03*
%TD*%
D16*
%TO.C,SW1*%
X47750000Y-79250000D03*
X47750000Y-85750000D03*
X52250000Y-79250000D03*
X52250000Y-85750000D03*
%TD*%
D24*
%TO.C,J4*%
X57415888Y-93650000D03*
X52415888Y-93650000D03*
%TD*%
%TO.C,J3*%
X62415888Y-93650000D03*
X67415888Y-93650000D03*
%TD*%
D11*
%TO.C,J8*%
X27000000Y-44840000D03*
D12*
X27000000Y-47380000D03*
X27000000Y-49920000D03*
X27000000Y-52460000D03*
X27000000Y-55000000D03*
X27000000Y-57540000D03*
X27000000Y-60080000D03*
X27000000Y-62620000D03*
%TD*%
D24*
%TO.C,J1*%
X82415888Y-93650000D03*
X87415888Y-93650000D03*
%TD*%
D25*
%TO.C,U3*%
X47050000Y-55435000D03*
X47050000Y-57975000D03*
D26*
X47050000Y-60515000D03*
%TD*%
D11*
%TO.C,J5*%
X25000000Y-85040000D03*
D12*
X25000000Y-82500000D03*
X25000000Y-79960000D03*
%TD*%
D15*
%TO.C,D9*%
X38350000Y-32450000D03*
X41650000Y-32450000D03*
X41650000Y-27550000D03*
X38350000Y-27550000D03*
%TD*%
%TO.C,D10*%
X63350000Y-32450000D03*
X66650000Y-32450000D03*
X66650000Y-27550000D03*
X63350000Y-27550000D03*
%TD*%
D27*
%TO.C,JP1*%
X51650000Y-11000000D03*
D28*
X50350000Y-11000000D03*
%TD*%
D27*
%TO.C,JP2*%
X52000000Y-15000000D03*
D28*
X50700000Y-15000000D03*
%TD*%
D27*
%TO.C,JP3*%
X70350000Y-10000000D03*
D28*
X69050000Y-10000000D03*
%TD*%
D29*
%TO.C,RV1*%
X108000000Y-31450000D03*
X108000000Y-33990000D03*
X108000000Y-36530000D03*
%TD*%
D27*
%TO.C,JP4*%
X62650000Y-11000000D03*
D28*
X61350000Y-11000000D03*
%TD*%
M02*
