%TF.GenerationSoftware,KiCad,Pcbnew,(6.0.9)*%
%TF.CreationDate,2022-11-21T22:50:26+02:00*%
%TF.ProjectId,Elekit2.0,456c656b-6974-4322-9e30-2e6b69636164,rev?*%
%TF.SameCoordinates,Original*%
%TF.FileFunction,Soldermask,Top*%
%TF.FilePolarity,Negative*%
%FSLAX46Y46*%
G04 Gerber Fmt 4.6, Leading zero omitted, Abs format (unit mm)*
G04 Created by KiCad (PCBNEW (6.0.9)) date 2022-11-21 22:50:26*
%MOMM*%
%LPD*%
G01*
G04 APERTURE LIST*
G04 Aperture macros list*
%AMRoundRect*
0 Rectangle with rounded corners*
0 $1 Rounding radius*
0 $2 $3 $4 $5 $6 $7 $8 $9 X,Y pos of 4 corners*
0 Add a 4 corners polygon primitive as box body*
4,1,4,$2,$3,$4,$5,$6,$7,$8,$9,$2,$3,0*
0 Add four circle primitives for the rounded corners*
1,1,$1+$1,$2,$3*
1,1,$1+$1,$4,$5*
1,1,$1+$1,$6,$7*
1,1,$1+$1,$8,$9*
0 Add four rect primitives between the rounded corners*
20,1,$1+$1,$2,$3,$4,$5,0*
20,1,$1+$1,$4,$5,$6,$7,0*
20,1,$1+$1,$6,$7,$8,$9,0*
20,1,$1+$1,$8,$9,$2,$3,0*%
%AMFreePoly0*
4,1,22,0.500000,-0.750000,0.000000,-0.750000,0.000000,-0.745033,-0.079941,-0.743568,-0.215256,-0.701293,-0.333266,-0.622738,-0.424486,-0.514219,-0.481581,-0.384460,-0.499164,-0.250000,-0.500000,-0.250000,-0.500000,0.250000,-0.499164,0.250000,-0.499963,0.256109,-0.478152,0.396186,-0.417904,0.524511,-0.324060,0.630769,-0.204165,0.706417,-0.067858,0.745374,0.000000,0.744959,0.000000,0.750000,
0.500000,0.750000,0.500000,-0.750000,0.500000,-0.750000,$1*%
%AMFreePoly1*
4,1,20,0.000000,0.744959,0.073905,0.744508,0.209726,0.703889,0.328688,0.626782,0.421226,0.519385,0.479903,0.390333,0.500000,0.250000,0.500000,-0.250000,0.499851,-0.262216,0.476331,-0.402017,0.414519,-0.529596,0.319384,-0.634700,0.198574,-0.708877,0.061801,-0.746166,0.000000,-0.745033,0.000000,-0.750000,-0.500000,-0.750000,-0.500000,0.750000,0.000000,0.750000,0.000000,0.744959,
0.000000,0.744959,$1*%
G04 Aperture macros list end*
%ADD10FreePoly0,0.000000*%
%ADD11FreePoly1,0.000000*%
%ADD12R,1.700000X1.700000*%
%ADD13O,1.700000X1.700000*%
%ADD14R,2.500000X1.800000*%
%ADD15R,1.000000X2.000000*%
%ADD16R,0.700000X0.700000*%
%ADD17C,2.000000*%
%ADD18RoundRect,0.250000X-0.250000X-0.475000X0.250000X-0.475000X0.250000X0.475000X-0.250000X0.475000X0*%
%ADD19RoundRect,0.250000X0.312500X0.625000X-0.312500X0.625000X-0.312500X-0.625000X0.312500X-0.625000X0*%
%ADD20O,1.800000X2.600000*%
%ADD21R,1.800000X2.600000*%
%ADD22C,3.000000*%
%ADD23RoundRect,0.250000X0.250000X0.475000X-0.250000X0.475000X-0.250000X-0.475000X0.250000X-0.475000X0*%
%ADD24R,1.500000X1.500000*%
%ADD25C,1.500000*%
%ADD26R,1.500000X3.000000*%
%ADD27C,3.200000*%
%ADD28R,0.500000X2.200000*%
%ADD29R,2.000000X2.200000*%
%ADD30C,0.900025*%
%ADD31R,1.000000X0.600000*%
%ADD32RoundRect,0.150000X-0.150000X0.587500X-0.150000X-0.587500X0.150000X-0.587500X0.150000X0.587500X0*%
%ADD33C,10.000025*%
%ADD34R,2.400000X6.100000*%
%ADD35RoundRect,0.250000X-0.450000X0.262500X-0.450000X-0.262500X0.450000X-0.262500X0.450000X0.262500X0*%
%ADD36RoundRect,0.200000X-0.275000X0.200000X-0.275000X-0.200000X0.275000X-0.200000X0.275000X0.200000X0*%
%ADD37RoundRect,0.250000X0.450000X-0.262500X0.450000X0.262500X-0.450000X0.262500X-0.450000X-0.262500X0*%
%ADD38RoundRect,0.250000X-0.262500X-0.450000X0.262500X-0.450000X0.262500X0.450000X-0.262500X0.450000X0*%
%ADD39RoundRect,0.140000X-0.140000X-0.170000X0.140000X-0.170000X0.140000X0.170000X-0.140000X0.170000X0*%
%ADD40RoundRect,0.200000X-0.200000X-0.275000X0.200000X-0.275000X0.200000X0.275000X-0.200000X0.275000X0*%
%ADD41RoundRect,0.150000X-0.587500X-0.150000X0.587500X-0.150000X0.587500X0.150000X-0.587500X0.150000X0*%
%ADD42R,1.200000X0.900000*%
%ADD43C,2.200000*%
%ADD44RoundRect,0.250000X-0.625000X0.312500X-0.625000X-0.312500X0.625000X-0.312500X0.625000X0.312500X0*%
%ADD45R,1.700000X1.000000*%
%ADD46R,1.800000X2.500000*%
%ADD47RoundRect,0.200000X0.275000X-0.200000X0.275000X0.200000X-0.275000X0.200000X-0.275000X-0.200000X0*%
%ADD48RoundRect,0.250000X-0.475000X0.250000X-0.475000X-0.250000X0.475000X-0.250000X0.475000X0.250000X0*%
%ADD49RoundRect,0.250000X0.475000X-0.250000X0.475000X0.250000X-0.475000X0.250000X-0.475000X-0.250000X0*%
%ADD50RoundRect,0.250000X0.262500X0.450000X-0.262500X0.450000X-0.262500X-0.450000X0.262500X-0.450000X0*%
%ADD51RoundRect,0.200000X0.200000X0.275000X-0.200000X0.275000X-0.200000X-0.275000X0.200000X-0.275000X0*%
%ADD52RoundRect,0.243750X-0.456250X0.243750X-0.456250X-0.243750X0.456250X-0.243750X0.456250X0.243750X0*%
%ADD53RoundRect,0.140000X0.170000X-0.140000X0.170000X0.140000X-0.170000X0.140000X-0.170000X-0.140000X0*%
%ADD54R,0.900000X1.200000*%
%ADD55RoundRect,0.150000X0.512500X0.150000X-0.512500X0.150000X-0.512500X-0.150000X0.512500X-0.150000X0*%
%ADD56O,2.000000X1.905000*%
%ADD57R,2.000000X1.905000*%
%ADD58O,0.602007X1.970993*%
%ADD59RoundRect,0.140000X-0.170000X0.140000X-0.170000X-0.140000X0.170000X-0.140000X0.170000X0.140000X0*%
%ADD60C,1.440000*%
G04 APERTURE END LIST*
D10*
%TO.C,JP5*%
X140550000Y-77000000D03*
D11*
X141850000Y-77000000D03*
%TD*%
D12*
%TO.C,J6*%
X128650000Y-77550000D03*
D13*
X128650000Y-80090000D03*
X128650000Y-82630000D03*
X128650000Y-85170000D03*
X128650000Y-87710000D03*
X128650000Y-90250000D03*
%TD*%
D14*
%TO.C,D8*%
X133000000Y-77500000D03*
X137000000Y-77500000D03*
%TD*%
D12*
%TO.C,J10*%
X25000000Y-32500000D03*
D13*
X25000000Y-35040000D03*
X25000000Y-37580000D03*
%TD*%
D15*
%TO.C,U9*%
X112649898Y-48889890D03*
X111150025Y-48889890D03*
X109649898Y-48889890D03*
X108150025Y-48889890D03*
X106649898Y-48889890D03*
X105150025Y-48889890D03*
X103649898Y-48889890D03*
X102150025Y-48889890D03*
X100649898Y-48889890D03*
X100649898Y-66390018D03*
X102150025Y-66390018D03*
X103649898Y-66390018D03*
X105150025Y-66390018D03*
X106649898Y-66390018D03*
X108150025Y-66390018D03*
X109649898Y-66390018D03*
X111150025Y-66390018D03*
X112649898Y-66390018D03*
D16*
X106450000Y-58599822D03*
X107550076Y-59699898D03*
X106450000Y-57500000D03*
X106450000Y-59699898D03*
X105349924Y-58599822D03*
X107550076Y-57500000D03*
X107550076Y-58599822D03*
X105349924Y-59699898D03*
X105349924Y-57500000D03*
%TD*%
D17*
%TO.C,SW2*%
X35250000Y-85750000D03*
X35250000Y-79250000D03*
X39750000Y-85750000D03*
X39750000Y-79250000D03*
%TD*%
D18*
%TO.C,C14*%
X82050000Y-60000000D03*
X83950000Y-60000000D03*
%TD*%
D19*
%TO.C,R1*%
X95462500Y-97500000D03*
X92537500Y-97500000D03*
%TD*%
D20*
%TO.C,DS1*%
X63900000Y-42142500D03*
X66440000Y-42142500D03*
X68980000Y-42142500D03*
X71520000Y-42142500D03*
X74060000Y-42142500D03*
X76600000Y-42142500D03*
X79140000Y-42142500D03*
X81680000Y-42142500D03*
X84220000Y-42142500D03*
X86760000Y-42142500D03*
X89300000Y-42142500D03*
X91840000Y-42142500D03*
X94380000Y-42142500D03*
X96920000Y-42142500D03*
X99460000Y-42142500D03*
D21*
X102000000Y-42142500D03*
D22*
X32500000Y-42142500D03*
X107499100Y-73143200D03*
X107499100Y-42142500D03*
X32500520Y-73143200D03*
%TD*%
D23*
%TO.C,C3*%
X94900000Y-95000000D03*
X93000000Y-95000000D03*
%TD*%
D24*
%TO.C,U11*%
X87000000Y-27685000D03*
D25*
X87000000Y-30225000D03*
X87000000Y-32765000D03*
X87000000Y-35305000D03*
%TD*%
D26*
%TO.C,U12*%
X74039752Y-72500000D03*
X71499746Y-72500000D03*
X71499746Y-82500000D03*
X74039752Y-82500000D03*
%TD*%
D27*
%TO.C,H4*%
X25000000Y-95000000D03*
%TD*%
%TO.C,H3*%
X25000000Y-25000000D03*
%TD*%
%TO.C,H2*%
X115400000Y-25000000D03*
%TD*%
%TO.C,H1*%
X115000000Y-95000000D03*
%TD*%
D28*
%TO.C,U1*%
X100899924Y-91599822D03*
X101700025Y-91599822D03*
X102499873Y-91599822D03*
X103299975Y-91599822D03*
X104099822Y-91599822D03*
D29*
X98050038Y-91999873D03*
X106949962Y-91999873D03*
X98050038Y-97500000D03*
X106949962Y-97500000D03*
D30*
X100299975Y-94649860D03*
X104700025Y-94649860D03*
%TD*%
D31*
%TO.C,U7*%
X75300102Y-56070038D03*
X75300102Y-57969962D03*
X72699898Y-57969962D03*
X72699898Y-57020000D03*
X72699898Y-56070038D03*
%TD*%
D32*
%TO.C,Q4*%
X74219876Y-85562500D03*
X72319876Y-85562500D03*
X73269876Y-87437500D03*
%TD*%
D12*
%TO.C,J9*%
X25000000Y-75040000D03*
D13*
X25000000Y-72500000D03*
X25000000Y-69960000D03*
%TD*%
D33*
%TO.C,U2*%
X70000000Y-29809500D03*
D34*
X81350013Y-29809500D03*
X58649987Y-29809500D03*
%TD*%
D12*
%TO.C,J7*%
X23000000Y-44840000D03*
D13*
X23000000Y-47380000D03*
X23000000Y-49920000D03*
X23000000Y-52460000D03*
X23000000Y-55000000D03*
X23000000Y-57540000D03*
X23000000Y-60080000D03*
X23000000Y-62620000D03*
%TD*%
D18*
%TO.C,C10*%
X61700000Y-57000000D03*
X63600000Y-57000000D03*
%TD*%
D35*
%TO.C,R18*%
X31000000Y-57087500D03*
X31000000Y-58912500D03*
%TD*%
D36*
%TO.C,R21*%
X68769876Y-85675000D03*
X68769876Y-87325000D03*
%TD*%
D37*
%TO.C,R2*%
X70060000Y-48270000D03*
X70060000Y-46445000D03*
%TD*%
D35*
%TO.C,R16*%
X73839924Y-62087500D03*
X73839924Y-63912500D03*
%TD*%
D38*
%TO.C,R4*%
X88087500Y-58000000D03*
X89912500Y-58000000D03*
%TD*%
D39*
%TO.C,C2*%
X103160000Y-84171869D03*
X102200000Y-84171869D03*
%TD*%
D12*
%TO.C,J11*%
X98000000Y-33525000D03*
D13*
X98000000Y-30985000D03*
X98000000Y-28445000D03*
%TD*%
D34*
%TO.C,U4*%
X31149987Y-29809500D03*
X53850013Y-29809500D03*
D33*
X42500000Y-29809500D03*
%TD*%
D38*
%TO.C,R8*%
X56337500Y-57000000D03*
X58162500Y-57000000D03*
%TD*%
D36*
%TO.C,R19*%
X68769876Y-81675000D03*
X68769876Y-83325000D03*
%TD*%
D40*
%TO.C,R23*%
X80944876Y-85500000D03*
X82594876Y-85500000D03*
%TD*%
D41*
%TO.C,Q2*%
X83875000Y-63300000D03*
X83875000Y-65200000D03*
X85750000Y-64250000D03*
%TD*%
D42*
%TO.C,D6*%
X29912500Y-62350000D03*
X29912500Y-65650000D03*
%TD*%
D18*
%TO.C,C7*%
X50700000Y-55000000D03*
X52600000Y-55000000D03*
%TD*%
D43*
%TO.C,J2*%
X72415888Y-93650000D03*
X77415888Y-93650000D03*
%TD*%
D44*
%TO.C,R12*%
X76839924Y-61537500D03*
X76839924Y-64462500D03*
%TD*%
D45*
%TO.C,U8*%
X90700025Y-82149809D03*
X97299975Y-82149784D03*
X90700025Y-85850216D03*
X97299975Y-85850191D03*
%TD*%
D17*
%TO.C,SW1*%
X47750000Y-79250000D03*
X47750000Y-85750000D03*
X52250000Y-79250000D03*
X52250000Y-85750000D03*
%TD*%
D46*
%TO.C,D1*%
X50500000Y-45000000D03*
X50500000Y-41000000D03*
%TD*%
D47*
%TO.C,R24*%
X77269876Y-68645000D03*
X77269876Y-66995000D03*
%TD*%
D43*
%TO.C,J4*%
X57415888Y-93650000D03*
X52415888Y-93650000D03*
%TD*%
D41*
%TO.C,Q1*%
X39062500Y-89050000D03*
X39062500Y-90950000D03*
X40937500Y-90000000D03*
%TD*%
D48*
%TO.C,C4*%
X39000000Y-61950000D03*
X39000000Y-60050000D03*
%TD*%
D41*
%TO.C,Q3*%
X29975000Y-61050000D03*
X29975000Y-62950000D03*
X31850000Y-62000000D03*
%TD*%
D49*
%TO.C,C5*%
X38000000Y-52050000D03*
X38000000Y-53950000D03*
%TD*%
D18*
%TO.C,C6*%
X52700000Y-50000000D03*
X54600000Y-50000000D03*
%TD*%
D26*
%TO.C,U13*%
X79539752Y-72500000D03*
X76999746Y-72500000D03*
X76999746Y-82500000D03*
X79539752Y-82500000D03*
%TD*%
D40*
%TO.C,R27*%
X64944876Y-88500000D03*
X66594876Y-88500000D03*
%TD*%
D14*
%TO.C,D3*%
X50512500Y-69642500D03*
X54512500Y-69642500D03*
%TD*%
%TO.C,D2*%
X47000000Y-50000000D03*
X43000000Y-50000000D03*
%TD*%
D38*
%TO.C,R10*%
X83662500Y-70250000D03*
X81837500Y-70250000D03*
%TD*%
D40*
%TO.C,R25*%
X64944876Y-85500000D03*
X66594876Y-85500000D03*
%TD*%
D48*
%TO.C,C15*%
X40000000Y-95050000D03*
X40000000Y-96950000D03*
%TD*%
D40*
%TO.C,R26*%
X64944876Y-87000000D03*
X66594876Y-87000000D03*
%TD*%
D32*
%TO.C,Q5*%
X78719876Y-85562500D03*
X76819876Y-85562500D03*
X77769876Y-87437500D03*
%TD*%
D50*
%TO.C,R13*%
X91825000Y-51825000D03*
X90000000Y-51825000D03*
%TD*%
D46*
%TO.C,D5*%
X57269876Y-87500000D03*
X57269876Y-83500000D03*
%TD*%
D38*
%TO.C,R5*%
X93087500Y-58825000D03*
X94912500Y-58825000D03*
%TD*%
D51*
%TO.C,R22*%
X82594876Y-88000000D03*
X80944876Y-88000000D03*
%TD*%
D43*
%TO.C,J3*%
X62415888Y-93650000D03*
X67415888Y-93650000D03*
%TD*%
D52*
%TO.C,D4*%
X97000000Y-50762500D03*
X97000000Y-48887500D03*
%TD*%
D48*
%TO.C,C12*%
X112500000Y-44550000D03*
X112500000Y-46450000D03*
%TD*%
D12*
%TO.C,J8*%
X27000000Y-44840000D03*
D13*
X27000000Y-47380000D03*
X27000000Y-49920000D03*
X27000000Y-52460000D03*
X27000000Y-55000000D03*
X27000000Y-57540000D03*
X27000000Y-60080000D03*
X27000000Y-62620000D03*
%TD*%
D38*
%TO.C,R9*%
X65525000Y-52364500D03*
X67350000Y-52364500D03*
%TD*%
D53*
%TO.C,C8*%
X71000000Y-57000000D03*
X71000000Y-56040000D03*
%TD*%
D37*
%TO.C,R28*%
X65269876Y-69412500D03*
X65269876Y-67587500D03*
%TD*%
D38*
%TO.C,R14*%
X38452322Y-69030038D03*
X40277322Y-69030038D03*
%TD*%
D26*
%TO.C,U14*%
X62500000Y-72500000D03*
X65040006Y-72500000D03*
X65040006Y-82500000D03*
X62500000Y-82500000D03*
%TD*%
D38*
%TO.C,R6*%
X65787500Y-49000000D03*
X67612500Y-49000000D03*
%TD*%
D54*
%TO.C,D7*%
X58350000Y-47000000D03*
X61650000Y-47000000D03*
%TD*%
D55*
%TO.C,U5*%
X100862500Y-88721869D03*
X100862500Y-87771869D03*
X100862500Y-86821869D03*
X103137500Y-86821869D03*
X103137500Y-87771869D03*
X103137500Y-88721869D03*
%TD*%
D43*
%TO.C,J1*%
X82415888Y-93650000D03*
X87415888Y-93650000D03*
%TD*%
D44*
%TO.C,R17*%
X44000000Y-69537500D03*
X44000000Y-72462500D03*
%TD*%
D47*
%TO.C,R20*%
X71269876Y-68645000D03*
X71269876Y-66995000D03*
%TD*%
D44*
%TO.C,R15*%
X70839924Y-61537500D03*
X70839924Y-64462500D03*
%TD*%
D48*
%TO.C,C13*%
X38000000Y-42050000D03*
X38000000Y-43950000D03*
%TD*%
D56*
%TO.C,U3*%
X47050000Y-55435000D03*
X47050000Y-57975000D03*
D57*
X47050000Y-60515000D03*
%TD*%
D39*
%TO.C,C1*%
X105180000Y-84171869D03*
X104220000Y-84171869D03*
%TD*%
D45*
%TO.C,U10*%
X109200025Y-82149809D03*
X115799975Y-82149784D03*
X109200025Y-85850216D03*
X115799975Y-85850191D03*
%TD*%
D58*
%TO.C,U6*%
X82445009Y-52235585D03*
X81175006Y-52235585D03*
X79905004Y-52235585D03*
X78635001Y-52235585D03*
X77364999Y-52235585D03*
X76094996Y-52235585D03*
X74824994Y-52235585D03*
X73554991Y-52235585D03*
X73554991Y-46764415D03*
X74824994Y-46764415D03*
X76094996Y-46764415D03*
X77364999Y-46764415D03*
X78635001Y-46764415D03*
X79905004Y-46764415D03*
X81175006Y-46764415D03*
X82445009Y-46764415D03*
%TD*%
D12*
%TO.C,J5*%
X25000000Y-85040000D03*
D13*
X25000000Y-82500000D03*
X25000000Y-79960000D03*
%TD*%
D38*
%TO.C,R7*%
X58337500Y-52000000D03*
X60162500Y-52000000D03*
%TD*%
D35*
%TO.C,R3*%
X97000000Y-53000000D03*
X97000000Y-54825000D03*
%TD*%
D48*
%TO.C,C11*%
X112500000Y-40600000D03*
X112500000Y-42500000D03*
%TD*%
D59*
%TO.C,C9*%
X77000000Y-56040000D03*
X77000000Y-57000000D03*
%TD*%
D38*
%TO.C,R11*%
X89750000Y-60250000D03*
X87925000Y-60250000D03*
%TD*%
D60*
%TO.C,RV1*%
X108000000Y-31450000D03*
X108000000Y-33990000D03*
X108000000Y-36530000D03*
%TD*%
M02*
